<svg width="23" height="23" viewBox="0 0 23 23" fill="none" xmlns="http://www.w3.org/2000/svg">
<g clip-path="url(#clip0_2019_29)">
<path d="M1.77441 12.4546H2.05518L2.23486 12.4995L2.42578 12.5894L2.58301 12.7129L2.69531 12.8364L2.80762 13.0273L2.86377 13.207L2.875 13.2856L2.88623 13.5215V17.3848L2.89746 17.6655L2.93115 17.9351L2.99854 18.2158L3.08838 18.4629L3.20068 18.71L3.34668 18.9458L3.44775 19.0806L3.5376 19.1929L3.67236 19.3389L3.82959 19.4849L4.0542 19.6533L4.27881 19.7881L4.53711 19.9116L4.84033 20.0127L5.03125 20.0576L5.26709 20.0913L5.40186 20.1025H17.6206L17.9126 20.0688L18.1934 20.0015L18.4292 19.9229L18.6987 19.7993L18.8896 19.687L19.0806 19.5522L19.2266 19.4287L19.3726 19.2939L19.4512 19.2041L19.4736 19.1704H19.4961L19.5186 19.1255L19.6533 18.9458L19.7544 18.7773L19.8779 18.5415L19.9678 18.3169L20.0576 17.98L20.0913 17.7554L20.1025 17.6206L20.1138 13.3643L20.1362 13.1958L20.1924 13.0273L20.2822 12.8701L20.3608 12.769L20.4731 12.6567L20.6528 12.5444L20.8213 12.4771L20.9336 12.4546H21.2256L21.4053 12.4995L21.585 12.5894L21.7085 12.6792L21.7871 12.7466L21.8994 12.8926L21.9893 13.0723L22.0342 13.2295L22.0454 13.2969V17.6768L22.0229 17.9351L21.9893 18.2046L21.9106 18.5864L21.8096 18.9233L21.6973 19.2266L21.5513 19.541L21.394 19.8218L21.2593 20.0352L21.1021 20.2485L20.9561 20.4282L20.9336 20.4619H20.9111L20.8887 20.5068L20.8325 20.5742H20.8101L20.7876 20.6191L20.5967 20.8101L20.5068 20.8887L20.3496 21.0234L20.1587 21.1694L19.8892 21.3491L19.6758 21.4727L19.4175 21.6074L19.1367 21.731L18.7324 21.8657L18.418 21.9443L18.1035 22.0005L17.7778 22.0342L17.5757 22.0454H5.39062L5.06494 22.0229L4.73926 21.978L4.4248 21.9106L4.07666 21.8096L3.75098 21.686L3.35791 21.4951L3.08838 21.3379L2.875 21.1919L2.68408 21.0459L2.52686 20.9111L2.41455 20.8101L2.32471 20.7314L2.23486 20.6416V20.6191H2.2124L2.13379 20.5293L2.04395 20.4282L1.94287 20.3047L1.83057 20.1587L1.68457 19.9453L1.56104 19.7432L1.44873 19.541L1.3252 19.2827L1.19043 18.9346L1.10059 18.6313L1.04443 18.3955L0.988281 18.0698L0.95459 17.7217L0.943359 13.8135V13.4429L0.95459 13.2744L0.999512 13.0947L1.08936 12.915L1.1792 12.7915L1.28027 12.6792L1.42627 12.5781L1.5835 12.4995L1.77441 12.4546Z" fill="white"/>
<path d="M11.354 0.95459H11.6348L11.7808 0.988281L11.9268 1.04443L12.1064 1.15674L12.2524 1.30273L12.3535 1.45996L12.4097 1.5835L12.4546 1.76318L12.4658 1.87549L12.4771 13.937L12.6567 13.7686L12.7241 13.6899L12.8027 13.6226L12.8589 13.5552L12.9375 13.4878L12.9937 13.4204L13.0723 13.353L13.1284 13.2856L13.207 13.2183L13.2632 13.1509L13.3418 13.0835L13.3979 13.0161L13.4766 12.9487L13.5327 12.8813L13.6113 12.814L13.6675 12.7466L13.7461 12.6792L13.8022 12.6118L13.8809 12.5444L13.937 12.4771L14.0156 12.4097L14.0718 12.3423L14.1504 12.2749L14.2065 12.2075L14.2852 12.1401L14.3413 12.0728L14.4199 12.0054L14.4761 11.938L14.5547 11.8706L14.6108 11.8032L14.6895 11.7358L14.7456 11.6685L14.8242 11.6011L14.8804 11.5337L14.959 11.4663L15.0151 11.3989L15.0938 11.3315L15.1499 11.2642L15.2173 11.208L15.2847 11.1294L15.3633 11.062L15.4194 10.9946L15.498 10.9272L15.5542 10.8599L15.6328 10.7925L15.689 10.7251L15.7676 10.6577L15.8237 10.5903L15.8911 10.5342L15.9585 10.4556L16.0259 10.3994L16.0933 10.3208L16.1606 10.2646L16.228 10.186L16.2954 10.1299L16.3291 10.085H16.3516L16.374 10.04H16.3965L16.4189 9.99512H16.4414L16.4639 9.9502H16.4863L16.4976 9.9165L16.6772 9.75928L16.8345 9.66943L16.9468 9.62451L17.104 9.59082H17.3735L17.5532 9.63574L17.688 9.69189L17.834 9.79297L17.9463 9.89404L18.0474 10.0176L18.1372 10.1973L18.1821 10.332L18.2046 10.4893V10.6016L18.1821 10.77L18.126 10.9385L18.0474 11.0845L17.9575 11.1968L17.8003 11.3652L17.7104 11.4551H17.688L17.6655 11.5H17.6431L17.6206 11.5449H17.5981L17.5757 11.5898L17.5083 11.646L17.4409 11.7246L17.3735 11.7808L17.3062 11.8594L17.2388 11.9155L17.1714 11.9941L17.104 12.0503L17.0366 12.1289L16.9692 12.1851L16.9019 12.2637L16.8345 12.3198L16.7671 12.3984L16.6997 12.4546L16.6323 12.5332L16.5649 12.5894L16.4976 12.668L16.4302 12.7241L16.3628 12.8027L16.2954 12.8589L16.228 12.9375L16.1606 12.9937L16.0933 13.0723L16.0259 13.1284L15.9585 13.207L15.8911 13.2632L15.8237 13.3418L15.7563 13.3979L15.689 13.4766L15.6216 13.5327L15.5542 13.6113L15.4868 13.6675L15.4194 13.7461L15.3521 13.8022L15.2847 13.8809L15.2061 13.9482L15.1499 14.0156L15.0825 14.0718L15.0151 14.1504L14.9478 14.2065L14.8804 14.2852L14.813 14.3413L14.7456 14.4199L14.6782 14.4761L14.6108 14.5547L14.5435 14.6108L14.4761 14.6895L14.3975 14.7568L14.3413 14.8242L14.2627 14.8916L14.2065 14.959L14.1279 15.0264L14.0718 15.0938L13.9932 15.1611L13.937 15.2285L13.8584 15.2959L13.8022 15.3633L13.7236 15.4307L13.6675 15.498L13.5889 15.5654L13.5327 15.6328L13.4541 15.7002L13.3979 15.7676L13.3193 15.835L13.2632 15.9023L13.1846 15.9697L13.1284 16.0371L13.0498 16.1045L12.9937 16.1719L12.915 16.2393L12.8589 16.3066L12.7803 16.374L12.7241 16.4414L12.6455 16.5088L12.5894 16.5762L12.5107 16.6436L12.4546 16.7109L12.376 16.7783L12.3198 16.8457L12.2412 16.9131L12.1851 16.9692L12.0728 17.0703L11.9155 17.1602L11.7695 17.2163L11.6123 17.25H11.3652L11.1855 17.2051L11.0508 17.1489L10.916 17.0591L10.7812 16.9355L5.02002 11.1743L4.91895 11.0283L4.84033 10.8599L4.79541 10.6577V10.4556L4.8291 10.2871L4.87402 10.1523L4.96387 10.0063L5.04248 9.90527L5.09863 9.83789L5.26709 9.71436L5.43555 9.63574L5.54785 9.60205L5.62646 9.59082H5.90723L6.05322 9.62451L6.23291 9.70312L6.39014 9.81543L6.49121 9.9165L6.55859 9.97266L6.62598 10.0513L6.69336 10.1074L6.76074 10.186L9.82666 13.252L9.88281 13.2969L9.9502 13.3755L10.0176 13.4316L10.085 13.5103L10.1523 13.5664L10.2197 13.645L10.2871 13.7012L10.332 13.7461V13.7686L10.377 13.791L10.5229 13.937V2.45947L10.5342 1.80811L10.5679 1.63965L10.624 1.49365L10.7139 1.34766L10.8149 1.23535L10.8936 1.15674L11.0508 1.05566L11.1743 0.999512L11.354 0.95459Z" fill="white"/>
</g>
<defs>
<clipPath id="clip0_2019_29">
<rect width="23" height="23" fill="white"/>
</clipPath>
</defs>
</svg>
