<svg width="23" height="23" viewBox="0 0 23 23" fill="none" xmlns="http://www.w3.org/2000/svg">
<path fill-rule="evenodd" clip-rule="evenodd" d="M11.5001 1.61011C11.8811 1.61011 12.1901 1.91903 12.1901 2.30011V12.901L15.6122 9.47887C15.8816 9.20941 16.3185 9.20941 16.588 9.47887C16.8574 9.74833 16.8574 10.1852 16.588 10.4547L11.988 15.0547C11.7185 15.3241 11.2816 15.3241 11.0122 15.0547L6.41216 10.4547C6.14269 10.1852 6.14269 9.74833 6.41216 9.47887C6.68162 9.20941 7.1185 9.20941 7.38796 9.47887L10.8101 12.901V2.30011C10.8101 1.91903 11.119 1.61011 11.5001 1.61011ZM3.83332 15.3335C4.25674 15.3335 4.59998 15.6767 4.59998 16.1001V18.4001C4.59998 19.2494 5.28331 19.9335 6.12772 19.9335H16.8684C17.7145 19.9335 18.4 19.2477 18.4 18.4001V16.1001C18.4 15.6767 18.7432 15.3335 19.1667 15.3335C19.5901 15.3335 19.9333 15.6767 19.9333 16.1001V18.4001C19.9333 20.093 18.5629 21.4668 16.8684 21.4668H6.12772C4.43161 21.4668 3.06665 20.0914 3.06665 18.4001V16.1001C3.06665 15.6767 3.4099 15.3335 3.83332 15.3335Z" fill="white"/>
</svg>
