<svg width="80" height="80" viewBox="0 0 80 80" fill="none" xmlns="http://www.w3.org/2000/svg">
<path d="M71.0156 0H73.2422L73.3594 0.078125L74.2969 0.351562L75 0.664062L75.7031 1.09375L76.2109 1.48438L76.7188 1.95312L76.9922 2.26562L77.4219 2.85156L77.7734 3.47656L78.0469 4.0625L78.2812 4.80469L78.3984 5.39062L78.4375 5.70312V7.03125L78.3203 7.73438L78.125 8.4375L77.7344 9.33594L77.3438 9.96094L76.9922 10.4297L76.6797 10.8203L76.3281 11.25L75.8203 11.875L75.4688 12.3047L74.9219 12.9688L74.6094 13.3594L74.1016 13.9844L73.7109 14.4531L73.2812 15L72.8516 15.5078L72.5391 15.8984L71.9922 16.5625L70.9766 17.8125L70.9375 17.8906H70.8594L70.7812 18.0469L70.4297 18.4766L69.4141 19.7266L68.9844 20.2344L68.5547 20.7812L68.0078 21.4453L67.3047 22.3047L66.9141 22.8125L66.875 29.4531V62.4219L66.8359 64.3359L66.6797 65.2344L66.4062 66.0547L66.0938 66.7188L65.6641 67.3828L65.3516 67.7734L64.8828 68.2812L64.4531 68.6328L64.0234 68.9453L63.3984 69.2969L62.7734 69.5703L61.9922 69.8047L61.3281 69.9219L60.8984 69.9609H42.8125V75.2734H46.7578L47.3438 75.3516L47.8125 75.5469L48.2422 75.8203L48.5938 76.1719L48.9062 76.6797L49.0625 77.1484L49.1016 77.3438V77.8906L49.0234 78.2812L48.8281 78.75L48.5938 79.1406L48.2422 79.4922L47.6562 79.8438L47.2266 80H21.1328L20.6641 79.8047L20.1172 79.4531L19.8438 79.1797L19.5312 78.7109L19.3359 78.2031L19.2969 78.0078V77.3438L19.4531 76.7578L19.6875 76.3281L20.0391 75.9375L20.3516 75.6641L20.8203 75.4297L21.2109 75.3125L21.5625 75.2734H25.5469V73.9844L25.5859 69.9609H7.46094L6.75781 69.8828L5.9375 69.6875L5.3125 69.4531L4.49219 69.0234L3.94531 68.6328L3.4375 68.1641L3.24219 67.9688L2.8125 67.5L2.42188 66.9141L2.03125 66.1719L1.79688 65.5078L1.64062 64.8828L1.5625 64.3359L1.52344 63.75V25.8203L1.60156 24.9609L1.79688 24.1406L2.03125 23.5156L2.34375 22.8906L2.57812 22.5L3.04688 21.875L3.35938 21.5234L3.98438 20.9766L4.57031 20.5859L5.3125 20.1953L6.05469 19.9219L7.03125 19.7266L7.89062 19.6875H41.9922L45.6641 19.6484L45.9766 19.4141L46.6016 18.9062L47.4609 18.2031L48.125 17.6562L48.6719 17.2266L49.2188 16.7578L49.7656 16.3281L50.2734 15.8984L50.6641 15.5859L51.3281 15.0391L51.7578 14.6875L52.3828 14.1797L52.8125 13.8281L53.4375 13.3203L54.1016 12.7734L54.6484 12.3438L55.1953 11.875L55.7422 11.4453L56.25 11.0156L56.7969 10.5859L57.3438 10.1172L57.6953 9.84375L58.2031 9.41406L58.5547 9.14062L59.2188 8.59375L59.7656 8.16406L60.3125 7.69531L60.8594 7.26562L61.3672 6.83594L61.7578 6.52344L62.4219 5.97656L62.8516 5.625L63.4766 5.11719L64.1406 4.57031L64.5312 4.25781L65.1953 3.71094L65.7422 3.28125L66.2891 2.8125L66.6797 2.5L67.5391 1.79688L67.9297 1.48438L68.5547 1.01562L69.1406 0.664062L69.8438 0.351562L70.7422 0.078125L71.0156 0ZM71.7188 4.72656L71.3281 4.88281L70.9766 5.11719L70.1172 5.82031L69.4531 6.36719L68.9062 6.79688L68.3594 7.26562L67.8125 7.69531L67.3047 8.125L66.9141 8.4375L66.4062 8.86719L65.8594 9.29688L65.1953 9.84375L64.6484 10.2734L64.1016 10.7422L63.5547 11.1719L63.0469 11.6016L62.6172 11.9531L61.9922 12.4609L61.6016 12.7734L61.1328 13.1641L60.7031 13.5156L60.0781 14.0234L59.5312 14.4531L58.9453 14.9609L58.3984 15.3906L57.7344 15.9375L57.2266 16.3672L56.6797 16.7969L56.0156 17.3438L55.5859 17.6953L54.9219 18.2422L54.375 18.6719L53.8281 19.1406L53.5938 19.2969L53.6328 19.4531L58.9844 24.8047L59.1406 24.8438L59.5703 24.2969L60 23.7891L60.4297 23.2422L60.8594 22.7344L61.1719 22.3438L61.7188 21.6797L62.0703 21.25L62.5781 20.625L63.2812 19.7656L63.5938 19.375L63.9453 18.9453L64.4531 18.3203L65 17.6562L65.3125 17.2656L65.8594 16.6016L66.2109 16.1719L66.7188 15.5469L67.2656 14.8828L67.6172 14.4531L68.125 13.8281L68.4375 13.4375L68.7891 13.0078L69.3359 12.3438L69.8438 11.7188L70.1953 11.2891L70.7031 10.6641L71.0547 10.2344L71.5625 9.60938L72.1094 8.94531L72.4609 8.51562L72.9688 7.89062L73.4375 7.30469L73.6328 6.91406L73.7109 6.60156V6.05469L73.5547 5.625L73.3203 5.27344L73.0469 5L72.6562 4.80469L72.3828 4.72656H71.7188ZM49.8438 22.3828L49.1797 22.9297L48.7891 23.2422L48.1641 23.75L47.6562 24.1797L47.1094 24.6094L46.4453 25.1562L45.9375 25.5859L45.625 25.8594L45.3125 26.1719L44.9219 26.7188L44.5312 27.4609L44.2969 28.2422L44.1797 28.9844V29.7656L44.2969 30.4688L44.4922 31.1328L44.8438 31.875L45.2734 32.4609L45.625 32.8516L46.0156 33.2031L46.5234 33.5547L47.1094 33.8672L47.8125 34.1016L48.3984 34.2188L48.7891 34.2578H49.4141L50.0391 34.1797L50.625 34.0234L51.2109 33.7891L51.8359 33.4375L52.3438 33.0469L52.8516 32.5391V32.4609H52.9297L53.3594 31.9141L53.9062 31.25L54.2578 30.8203L54.7656 30.1953V30.1172H54.8438L55.2734 29.5703L55.625 29.1406L56.0547 28.5938L55.9766 28.4375L49.9219 22.3828H49.8438ZM7.77344 24.4141L7.30469 24.4922L6.91406 24.6875L6.52344 25.0781L6.32812 25.5078L6.28906 25.7031L6.25 26.6797V56.9922H62.1094L62.1484 28.6719L61.875 28.9062L61.5234 29.3359L61.0156 29.9609L60.6641 30.3906L60.1562 31.0156L59.8047 31.4453L58.2812 33.3203L57.8516 33.8281L57.5781 34.1797L57.0312 34.8438L56.7188 35.2344L56.25 35.7812L56.1719 35.9375H56.0938L55.8203 36.25L55.3516 36.6797L54.5703 37.2656L53.8672 37.6953L53.125 38.0859L52.2266 38.4375L51.4453 38.6719L50.4297 38.8672L49.8047 38.9453L48.6328 38.9844L48.5938 39.1016L48.6328 39.7266V40.5078L48.5156 41.7578L48.3203 42.7344L48.0859 43.5156L47.8125 44.2578L47.3828 45.1562L46.9141 45.9375L46.5234 46.4844L46.1719 46.9141L45.8203 47.3047L45.7812 47.4219H45.7031V47.5H45.625V47.5781H45.5469V47.6562L45.3906 47.7344L44.9609 48.125L44.375 48.5547L43.7891 48.9062L42.9688 49.3359L42.0312 49.6875L41.25 49.9219L40.0391 50.1562L39.0625 50.2734L38.5156 50.3125L34.9219 50.3516L33.7109 50.4688L32.6953 50.6641L31.7188 50.9375L30.9375 51.25L30.2734 51.6016L29.8828 51.875L29.375 52.2266L28.9453 52.4219L28.3594 52.5391L27.7734 52.5L27.2656 52.3438L26.7578 52.0312L26.3672 51.6406L26.0547 51.0938L25.9375 50.7422L25.8984 50.5078V49.9219L26.0156 49.4141L26.25 48.9453L26.6406 48.4375L26.9531 47.9297L27.3047 47.1875L27.6172 46.25L27.8516 45.2344L27.9688 44.5312L28.0859 43.125V40.1562L28.1641 39.0625L28.3203 37.9688L28.5547 36.9531L28.9062 35.8984L29.2188 35.1953L29.6094 34.4531L29.9219 33.9844L30.3906 33.3594L30.9375 32.7734L31.2109 32.5L31.6406 32.1484L32.1875 31.7188L32.7734 31.3281L33.3984 30.9766L34.2969 30.5469L35.0391 30.2734L35.9375 30.0391L36.7969 29.8828L37.5781 29.8047H39.4531L39.4922 28.5938L39.6094 27.6953L39.8438 26.7188L40.1562 25.7812L40.5859 24.8438L40.7812 24.4922V24.4141H7.77344ZM37.9297 34.4922L37.2266 34.5703L36.5625 34.7266L35.9375 34.9609L35.2734 35.3125L34.7266 35.7031L34.3359 36.0547L33.9453 36.4453L33.5938 36.9922L33.2812 37.6172L33.0078 38.5156L32.8516 39.4922L32.8125 39.8828L32.7734 43.3984L32.6953 44.4922L32.5391 45.7031V45.8984L33.1641 45.8203L34.2188 45.7031L34.8438 45.6641L36.4844 45.625H37.9688L38.8281 45.5859L39.6484 45.4688L40.4297 45.2734L41.2109 44.9609L41.7969 44.6094L42.3047 44.1797L42.6953 43.75L43.125 43.125L43.4375 42.5391L43.7109 41.7969L43.9062 40.8203V39.6484L43.7891 38.9062L43.5547 38.125L43.125 37.2266L42.6562 36.5625L42.2266 36.0938L41.875 35.7812L41.2891 35.3516L40.4688 34.9219L39.7656 34.6875L38.9844 34.5312L38.5938 34.4922H37.9297ZM13.0469 61.6797L6.25 61.7188V63.5156L6.32812 64.1406L6.48438 64.4922L6.75781 64.8438L7.1875 65.1172L7.73438 65.2344H60.7422L61.2109 65.1172L61.6406 64.8438L61.9141 64.4922L62.0703 64.1406L62.1094 63.9453L62.1484 61.7188L55.8984 61.6797H13.0469ZM30.3125 69.9609V75.3125L38.0859 75.2734V69.9609H30.3125Z" fill="black"/>
</svg>
