<svg width="75" height="75" viewBox="0 0 75 75" fill="none" xmlns="http://www.w3.org/2000/svg">
<path d="M6.81152 4.50439H68.042L69.2505 4.57764L69.9097 4.6875L70.8618 4.98047L71.4478 5.27344L72.1069 5.63965L72.9126 6.29883L73.3521 6.73828L73.7549 7.25098L74.0112 7.61719L74.4141 8.34961L74.6704 9.04541L74.8901 9.81445L74.9268 9.96094L75 9.92432V64.9658H74.9268L74.7803 65.5884L74.4873 66.4673L74.0479 67.3096L73.8281 67.6392L73.4619 68.1152L72.9492 68.6646L72.4365 69.104L71.9604 69.4336L71.1548 69.873L70.459 70.1294L69.7998 70.3125L69.0308 70.4224L68.5547 70.459H6.40869L5.52979 70.3857L4.87061 70.2393L3.9917 69.9463L3.14941 69.5068L2.67334 69.1772L2.16064 68.7378L1.86768 68.4814L1.53809 68.1152L1.06201 67.4927L0.695801 66.8335L0.439453 66.3208L0.109863 65.1855L0.0732422 64.8193L0 64.7827V10.2539L0.109863 9.77783L0.32959 9.00879L0.549316 8.42285L1.02539 7.54395L1.3916 7.06787L1.72119 6.66504L1.94092 6.40869L2.34375 6.0791L2.7832 5.71289L3.33252 5.3833L4.02832 5.01709L4.90723 4.72412L5.45654 4.61426L6.11572 4.54102L6.81152 4.50439ZM6.62842 8.93555L6.00586 9.00879L5.56641 9.19189L5.23682 9.41162L4.98047 9.63135L4.65088 10.1074L4.50439 10.5103L4.43115 10.8765L4.39453 11.9751V22.0825L4.61426 22.1191H70.4956L70.5688 22.0825V10.9131L70.459 10.4004L70.166 9.81445L69.873 9.48486L69.3604 9.15527L68.9575 9.00879L68.3716 8.93555H6.62842ZM4.43115 26.5137L4.39453 27.356V63.5742L4.43115 64.1602L4.57764 64.7461L4.79736 65.1123L5.12695 65.4785L5.45654 65.7349L5.85938 65.918L6.33545 66.0278L29.7729 66.0645H33.728L68.6646 66.0278L69.2505 65.8813L69.6533 65.6616L70.0928 65.2588L70.3491 64.856L70.4956 64.4897L70.5688 64.1235V26.5137H4.43115Z" fill="#010101"/>
<path d="M41.4917 30.9082H42.2607L42.7002 31.0181L43.103 31.2378L43.5059 31.5674L43.7988 31.9702L43.9819 32.3364L44.0918 32.7393V33.4717L43.8354 34.3506L35.3027 59.9487L35.0464 60.5347L34.79 60.9375L34.6436 61.084H34.5703V61.1572L34.1675 61.4136L33.728 61.5967L33.3984 61.6699H32.7759L32.3364 61.5601L31.897 61.3403L31.4941 61.0107L31.2012 60.6079L30.9814 60.1685L30.8716 59.6191L30.9082 59.1064L31.0547 58.5571L31.7505 56.4697L32.2266 55.0049L32.7026 53.6133L33.2153 52.0386L33.6548 50.7568L34.1309 49.292L34.6069 47.9004L35.083 46.4355L35.5591 45.0439L36.0352 43.5791L36.5112 42.1875L36.9873 40.7227L37.4634 39.3311L37.9395 37.8662L38.4155 36.4746L38.855 35.1562L39.4043 33.4717L39.7705 32.4097L40.0635 31.8237L40.3931 31.4575L40.7227 31.2012L41.0889 31.0181L41.4917 30.9082Z" fill="black"/>
<path d="M50.6104 35.2661L51.2695 35.3394L51.709 35.5225L52.1851 35.8521L61.1206 44.7876L61.4502 45.2637L61.6333 45.7031L61.6699 45.8862V46.6919L61.5234 47.168L61.3037 47.5342L61.0107 47.9004L52.2217 56.6895L51.7456 57.019L51.3062 57.2021L50.9766 57.2754H50.354L49.9146 57.1655L49.4751 56.9458L49.0723 56.6162L48.7793 56.2134L48.5596 55.7739L48.4497 55.188L48.4863 54.6753L48.6328 54.1992L48.8525 53.7964L49.2554 53.3569L50.2808 52.3315L50.4639 52.1118L50.6104 51.9653H50.6836V51.8921H50.7568V51.8188H50.8301V51.7456H50.9033V51.6724H50.9766V51.5991H51.0498V51.5259H51.123V51.4526H51.1963V51.3794H51.2695V51.3062H51.3428V51.2329H51.416V51.1597H51.4893V51.0864H51.5625V51.0132H51.6357V50.9399H51.709V50.8667H51.7822V50.7935H51.8555V50.7202H51.9287V50.647H52.002L52.0752 50.5005H52.1484L52.2217 50.354H52.2949L52.3682 50.2075H52.4414L52.5146 50.061H52.5879L52.6611 49.9146H52.7344L52.8076 49.7681H52.8809L52.9541 49.6216H53.0273L53.1006 49.4751H53.1738L53.2471 49.3286H53.3203L53.3936 49.1821H53.4668L53.54 49.0356H53.6133L53.6865 48.8892H53.7598L53.833 48.7427H53.9062L53.9795 48.5962H54.0527L54.126 48.4497H54.1992L54.2725 48.3032H54.3457L54.4189 48.1567H54.4922L54.5654 48.0103H54.6387L54.7119 47.8638H54.7852L54.8584 47.7173H54.9316L55.0049 47.5708H55.0781L55.1514 47.4243H55.2246L55.2979 47.2778L56.1768 46.3989H56.25L56.2134 46.1792L49.0723 39.0381L48.7427 38.5986L48.5596 38.1958L48.4863 37.9395L48.4497 37.3535L48.5596 36.8042L48.8525 36.2183L49.2554 35.7788L49.7681 35.4492L50.2808 35.3027L50.6104 35.2661Z" fill="black"/>
<path d="M23.9136 35.3027H24.7192L25.1953 35.4492L25.6348 35.7056L25.9277 35.9619L26.2573 36.4014L26.4404 36.8042L26.5137 37.1338V37.9028L26.3672 38.3789L26.1475 38.7451L25.8545 39.1113L18.7866 46.1792L18.75 46.3989L18.8599 46.4355L19.1162 46.7285L25.9277 53.54L26.2573 53.9795L26.4404 54.3823L26.5137 54.7119V55.481L26.3306 56.0303L26.0742 56.4331L25.8545 56.6895L25.4517 56.9824L25.0488 57.1655L24.6094 57.2754H23.9868L23.5474 57.1655L23.1079 56.9458L22.6318 56.543L13.916 47.8271L13.5864 47.3877L13.4033 46.9849L13.3301 46.7285L13.2935 46.1426L13.4033 45.5933L13.6963 45.0073L14.0991 44.5679L14.2822 44.3848L14.4287 44.2017H14.502V44.1284H14.5752V44.0552H14.6484V43.9819H14.7217V43.9087H14.7949V43.8354H14.8682V43.7622H14.9414V43.689H15.0146V43.6157H15.0879V43.5425H15.1611V43.4692H15.2344V43.396H15.3076V43.3228H15.3809V43.2495H15.4541V43.1763H15.5273V43.103H15.6006V43.0298H15.6738V42.9565H15.7471V42.8833H15.8203V42.8101H15.8936V42.7368H15.9668V42.6636H16.04V42.5903H16.1133V42.5171H16.1865V42.4438H16.2598V42.3706H16.333V42.2974H16.4062V42.2241H16.4795V42.1509H16.5527V42.0776H16.626V42.0044H16.6992V41.9312H16.7725V41.8579H16.8457V41.7847H16.9189V41.7114H16.9922V41.6382H17.0654V41.5649H17.1387V41.4917H17.2119V41.4185H17.2852V41.3452H17.3584V41.272H17.4316V41.1987H17.5049V41.1255H17.5781V41.0522H17.6514V40.979H17.7246V40.9058H17.7979V40.8325H17.8711V40.7593H17.9443V40.686H18.0176V40.6128H18.0908V40.5396H18.1641V40.4663H18.2373V40.3931H18.3105V40.3198H18.3838V40.2466H18.457V40.1733H18.5303V40.1001H18.6035V40.0269H18.6768V39.9536H18.75V39.8804H18.8232V39.8071H18.8965V39.7339H18.9697V39.6606H19.043V39.5874H19.1162V39.5142H19.1895V39.4409H19.2627V39.3677H19.3359V39.2944H19.4092V39.2212H19.4824V39.1479H19.5557V39.0747H19.6289V39.0015H19.7021V38.9282H19.7754V38.855H19.8486V38.7817H19.9219V38.7085H19.9951V38.6353H20.0684V38.562H20.1416V38.4888H20.2148V38.4155H20.2881V38.3423H20.3613V38.269H20.4346V38.1958H20.5078V38.1226H20.5811V38.0493H20.6543V37.9761H20.7275V37.9028H20.8008V37.8296H20.874V37.7563H20.9473V37.6831H21.0205V37.6099H21.0938V37.5366H21.167V37.4634H21.2402V37.3901H21.3135V37.3169H21.3867V37.2437H21.46V37.1704H21.5332V37.0972H21.6064V37.0239H21.6797V36.9507H21.7529V36.8774H21.8262V36.8042H21.8994V36.731H21.9727V36.6577H22.0459V36.5845H22.1191V36.5112H22.1924V36.438H22.2656L22.3389 36.2915H22.4121L22.4854 36.145H22.5586V36.0718L22.8516 35.8154L23.2178 35.5591L23.5107 35.4126L23.9136 35.3027Z" fill="black"/>
<path d="M59.4727 13.2935H63.7573L64.4165 13.3667L64.8193 13.5132L65.2222 13.7695L65.4785 13.9893L65.7715 14.3921L65.9546 14.7583L66.0645 15.1611V15.8936L65.918 16.3696L65.6982 16.7725L65.4053 17.1387L65.1123 17.3584L64.5996 17.6147L64.3433 17.688L64.0503 17.7246H59.1797L58.7036 17.6147L58.2642 17.395L57.9346 17.1387L57.605 16.7358L57.3853 16.2964L57.2754 15.9302V15.1611L57.4219 14.6484L57.6416 14.2456L58.0444 13.8062L58.4473 13.5498L58.8867 13.3667L59.4727 13.2935Z" fill="#010101"/>
<path d="M46.2891 13.2935H50.5737L51.2329 13.3667L51.6357 13.5132L52.0386 13.7695L52.2949 13.9893L52.5879 14.3921L52.771 14.7583L52.8809 15.1611V15.8936L52.7344 16.3696L52.5146 16.7725L52.2217 17.1387L51.9287 17.3584L51.416 17.6147L51.1597 17.688L50.8667 17.7246H45.9961L45.52 17.6147L45.0806 17.395L44.751 17.1387L44.4214 16.7358L44.2017 16.2964L44.0918 15.9302V15.1611L44.2383 14.6484L44.458 14.2456L44.8608 13.8062L45.2637 13.5498L45.7031 13.3667L46.2891 13.2935Z" fill="#010101"/>
<path d="M33.1055 13.2935H37.3901L38.0493 13.3667L38.4521 13.5132L38.855 13.7695L39.1113 13.9893L39.4043 14.3921L39.5874 14.7583L39.6973 15.1611V15.8936L39.5508 16.3696L39.3311 16.7725L39.0381 17.1387L38.7451 17.3584L38.2324 17.6147L37.9761 17.688L37.6831 17.7246H32.8125L32.3364 17.6147L31.897 17.395L31.5674 17.1387L31.2378 16.7358L31.0181 16.2964L30.9082 15.9302V15.1611L31.0547 14.6484L31.2744 14.2456L31.6772 13.8062L32.0801 13.5498L32.5195 13.3667L33.1055 13.2935Z" fill="#010101"/>
</svg>
