<svg width="20" height="20" viewBox="0 0 20 20" fill="none" xmlns="http://www.w3.org/2000/svg">
<g clip-path="url(#clip0_2017_134)">
<path d="M9.38477 0H10.7812V0.00976562L11.377 0.078125L11.7676 0.136719L12.2168 0.224609L12.6855 0.341797L13.0762 0.458984L13.4766 0.595703L13.877 0.751953L14.248 0.917969L14.4336 1.00586L14.8438 1.2207L15.0781 1.35742L15.3027 1.49414L15.498 1.62109L15.7129 1.76758L15.8887 1.89453L16.0938 2.05078L16.2305 2.1582L16.3379 2.24609L16.4648 2.35352L16.5723 2.44141L16.7285 2.58789L16.8066 2.65625L16.9629 2.80273L17.207 3.04688V3.06641H17.2266L17.2949 3.14453L17.4414 3.30078L17.5293 3.4082L17.627 3.51562L17.7148 3.62305L17.8516 3.78906L17.9688 3.94531L18.1055 4.13086L18.2227 4.29688L18.3008 4.41406L18.4473 4.63867L18.6133 4.91211L18.7402 5.13672L18.9062 5.44922L19.0527 5.75195L19.1602 5.99609L19.3164 6.37695L19.4336 6.70898L19.5508 7.07031L19.6484 7.42188L19.7559 7.89062L19.8242 8.26172L19.873 8.57422L19.9121 8.90625L19.9414 9.26758L19.9609 9.75586V10.0391L19.9414 10.5273L19.9121 10.8984L19.8633 11.3086L19.7949 11.7285L19.7168 12.1094L19.6094 12.5391L19.4922 12.9297L19.3555 13.3301L19.1992 13.7305L19.0332 14.1016L18.8672 14.4434L18.75 14.6582L18.623 14.8828L18.4961 15.0977L18.3398 15.3418L18.2227 15.5176L18.125 15.6543L17.998 15.8301L17.8711 15.9961L17.7441 16.1523L17.6758 16.2402L17.5586 16.377L17.4707 16.4746L17.4023 16.5527L17.3145 16.6504L17.2461 16.7188L17.1777 16.7969L16.8652 17.1094L16.7871 17.1777L16.7188 17.2461L16.6406 17.3145L16.4941 17.4414L16.3672 17.5488L16.2598 17.6367L16.123 17.7441L15.9961 17.8418L15.8105 17.9785L15.5273 18.1738L15.3613 18.2812L15.127 18.4277L14.9023 18.5547L14.7461 18.6426L14.5508 18.75L14.3262 18.8574L14.0137 19.0039L13.6621 19.1504L13.3203 19.2773L12.9004 19.4141L12.5488 19.5117L12.3145 19.5703L11.9434 19.6484L11.5625 19.7168L11.1914 19.7656L10.7812 19.8047L10.4785 19.8242L10.1758 19.834H9.88281L9.58008 19.8242L9.05273 19.7852L8.65234 19.7363L8.22266 19.668L7.76367 19.5703L7.34375 19.4629L6.93359 19.3359L6.62109 19.2285L6.25 19.082L6.02539 18.9844L5.70312 18.8379L5.48828 18.7305L5.33203 18.6426L5.29297 18.6328L0.888672 19.7852L0.234375 19.9609L0.117188 19.9902L0.0976562 20H0.0390625L0.0683594 19.8926L0.273438 19.1309L0.458984 18.457L0.595703 17.959L0.800781 17.207L0.908203 16.8164L1.23047 15.6348L1.42578 14.9219V14.834L1.26953 14.5508L1.12305 14.2676L0.996094 13.9941L0.869141 13.7012L0.732422 13.3496L0.615234 13.0176L0.537109 12.7637L0.419922 12.3438L0.302734 11.8164L0.234375 11.416L0.185547 11.0547L0.146484 10.6543L0.126953 10.3027V9.52148L0.146484 9.16016L0.195312 8.68164L0.263672 8.22266L0.341797 7.82227L0.429688 7.45117L0.517578 7.12891L0.625 6.78711L0.751953 6.42578L0.859375 6.15234L0.986328 5.85938L1.07422 5.66406L1.15234 5.50781L1.31836 5.18555L1.39648 5.05859L1.45508 4.95117L1.5918 4.7168L1.71875 4.52148L1.85547 4.31641L1.97266 4.15039L2.07031 4.01367L2.26562 3.75977L2.35352 3.65234L2.43164 3.55469L2.51953 3.45703L2.60742 3.34961L2.74414 3.20312L2.85156 3.08594L2.91992 3.01758L2.92969 2.99805H2.94922L2.96875 2.95898L3.125 2.80273L3.20312 2.73438L3.30078 2.63672L3.37891 2.56836L3.50586 2.45117L3.61328 2.36328L3.71094 2.27539L3.84766 2.16797L4.00391 2.04102L4.16016 1.92383L4.49219 1.68945L4.6875 1.5625L4.90234 1.42578L5.15625 1.2793L5.36133 1.16211L5.70312 0.986328L6.08398 0.810547L6.43555 0.664062L6.72852 0.556641L7.07031 0.439453L7.48047 0.322266L7.79297 0.244141L8.21289 0.15625L8.63281 0.0878906L9.02344 0.0390625L9.38477 0ZM9.72656 1.67969L9.39453 1.69922L9.08203 1.72852L8.66211 1.78711L8.31055 1.85547L7.94922 1.94336L7.63672 2.03125L7.28516 2.14844L7.05078 2.23633L6.83594 2.32422L6.55273 2.45117L6.36719 2.53906L6.18164 2.63672L5.9668 2.75391L5.75195 2.88086L5.55664 3.00781L5.41016 3.10547L5.24414 3.22266L5.13672 3.30078L5.00977 3.39844L4.87305 3.50586L4.77539 3.58398L4.66797 3.68164L4.56055 3.76953L4.4043 3.91602L4.30664 4.01367L4.22852 4.08203L4.16016 4.15039L4.0918 4.22852L3.98438 4.33594V4.35547H3.96484L3.87695 4.46289L3.76953 4.58008L3.68164 4.6875L3.55469 4.84375L3.45703 4.9707L3.37891 5.07812L3.26172 5.24414L3.16406 5.39062L3.03711 5.58594L2.96875 5.69336L2.91016 5.80078L2.8125 5.9668L2.74414 6.10352L2.64648 6.28906L2.5 6.60156L2.38281 6.88477L2.29492 7.11914L2.17773 7.46094L2.07031 7.8418L1.98242 8.21289L1.91406 8.56445L1.86523 8.92578L1.83594 9.18945L1.81641 9.49219L1.80664 9.77539V10.1172L1.82617 10.5176L1.86523 10.918L1.92383 11.3184L1.99219 11.6699L2.10938 12.1387L2.20703 12.4609L2.31445 12.7734L2.45117 13.1152L2.56836 13.3789L2.73438 13.7207L2.85156 13.9355L2.98828 14.1699L3.125 14.3945L3.21289 14.5312L3.25195 14.5898L3.24219 14.668L3.05664 15.3516L2.83203 16.1719L2.65625 16.8164L2.49023 17.4219L2.44141 17.5977V17.627L2.50977 17.6172L3.53516 17.3535L3.93555 17.2461L4.42383 17.1191L4.82422 17.0117L5.24414 16.9043L5.49805 16.8359H5.55664L5.66406 16.8945L5.81055 16.9824L6.08398 17.1387L6.32812 17.2656L6.48438 17.3438L6.80664 17.4902L7.07031 17.5977L7.36328 17.7051L7.73438 17.8223L8.06641 17.9102L8.4668 17.998L8.86719 18.0664L9.27734 18.1152L9.7168 18.1445H10.3418L10.6738 18.125L11.0645 18.0859L11.3965 18.0371L11.7188 17.9785L12.1289 17.8809L12.4023 17.8027L12.8223 17.666L13.1738 17.5293L13.418 17.4219L13.6914 17.2949L13.916 17.1777L14.1797 17.0312L14.4043 16.8945L14.5996 16.7676L14.7559 16.6602L14.9316 16.5332L15.0977 16.4062L15.2344 16.2988L15.3711 16.1816L15.4688 16.0938L15.5762 16.0059L15.6836 15.8984L15.7617 15.8301L16.0156 15.5762L16.084 15.498L16.1719 15.4102L16.2109 15.3613V15.3418H16.2305L16.3184 15.2344L16.4062 15.1367L16.5332 14.9707L16.6211 14.8633L16.7383 14.6973L16.8652 14.5215L16.9629 14.3652L17.0703 14.1992L17.207 13.9648L17.3047 13.7891L17.3828 13.6328L17.4609 13.4863L17.6074 13.1641L17.7344 12.8516L17.8516 12.5195L17.9297 12.2754L18.0371 11.8848L18.125 11.4844L18.1934 11.084L18.2324 10.752L18.2617 10.3613L18.2715 10.0781V9.72656L18.252 9.30664L18.2227 8.98438L18.1738 8.61328L18.1055 8.23242L18.0176 7.85156L17.9004 7.44141L17.7637 7.04102L17.6562 6.76758L17.5 6.41602L17.4121 6.23047L17.3145 6.04492L17.1875 5.81055L17.0996 5.66406L16.9824 5.47852L16.875 5.3125L16.7383 5.11719L16.6016 4.93164L16.4941 4.79492L16.3672 4.63867L16.25 4.50195L16.1621 4.4043L16.0938 4.32617L16.0352 4.25781H16.0156L15.9961 4.21875L15.6836 3.90625L15.6055 3.83789L15.4785 3.7207L15.3711 3.63281L15.2832 3.55469L15.1465 3.44727L15 3.33008L14.8926 3.25195L14.7266 3.13477L14.4922 2.97852L14.2578 2.83203L13.9844 2.67578L13.7207 2.53906L13.418 2.39258L13.0957 2.25586L12.7539 2.12891L12.3926 2.01172L11.9922 1.9043L11.6309 1.82617L11.2305 1.75781L10.8105 1.70898L10.3125 1.67969H9.72656Z" fill="#1F2937"/>
<path d="M6.50391 5.32227H6.75781L7.10938 5.33203L7.23633 5.35156L7.35352 5.41992L7.44141 5.51758L7.5293 5.67383L7.59766 5.82031L7.70508 6.08398L7.87109 6.48438L7.97852 6.74805L8.14453 7.14844L8.27148 7.45117L8.37891 7.70508L8.39844 7.77344V7.91992L8.34961 8.05664L8.23242 8.28125L8.1543 8.39844L7.97852 8.61328L7.86133 8.75L7.79297 8.82812L7.76367 8.86719H7.74414L7.72461 8.90625L7.64648 8.98438L7.58789 9.08203L7.57812 9.12109V9.25781L7.62695 9.38477L7.76367 9.60938L7.86133 9.75586L7.98828 9.94141L8.125 10.127L8.22266 10.2539L8.33008 10.3906L8.45703 10.5371L8.63281 10.7324L8.76953 10.8789L8.87695 10.9863L8.95508 11.0547L9.0625 11.1523L9.16992 11.2402L9.29688 11.3477L9.49219 11.4941L9.63867 11.6016L9.80469 11.709L10.0195 11.8457L10.2051 11.9531L10.5957 12.1484L10.791 12.2363L11.084 12.3633L11.2305 12.4023L11.3281 12.3926L11.4453 12.334L11.5137 12.2754L11.6016 12.168L11.7285 12.0215L11.8652 11.8555L11.9434 11.7676L12.1582 11.4941L12.2852 11.3184L12.373 11.2109L12.4414 11.1523L12.5195 11.1133L12.5586 11.1035L12.6855 11.1133L12.8223 11.1523L13.0176 11.2305L13.2715 11.3477L13.5449 11.4746L13.7012 11.5527L14.0234 11.709L14.2773 11.8359L14.502 11.9434L14.873 12.1289L15.0098 12.2266L15.0586 12.3047L15.0781 12.4121V12.5977L15.0586 12.8027L15.0195 13.0273L14.9609 13.2617L14.8828 13.4961L14.8047 13.6426L14.707 13.7695L14.5996 13.8867L14.502 13.9844L14.3652 14.0918L14.2871 14.1504L14.1406 14.248L13.9355 14.3652L13.7793 14.4434L13.6328 14.5117L13.4375 14.5801L13.1934 14.6387L12.9395 14.668L12.8027 14.6777H12.4121L12.207 14.6582L11.9727 14.6191L11.6992 14.5508L11.2207 14.3945L10.918 14.2871L10.5469 14.1406L10.2637 14.0234L10.0684 13.9355L9.82422 13.8184L9.55078 13.6719L9.30664 13.5254L9.12109 13.4082L8.90625 13.2617L8.76953 13.1641L8.61328 13.0469L8.52539 12.9785L8.38867 12.8711L8.22266 12.7344L8.08594 12.6172L7.96875 12.5098L7.89062 12.4414L7.79297 12.3535L7.67578 12.2363L7.59766 12.168L7.36328 11.9336V11.9141H7.34375L7.27539 11.8359L7.17773 11.7383L7.10938 11.6602L6.99219 11.5332L6.92383 11.4551L6.80664 11.3184L6.69922 11.1914L6.5918 11.0547L6.46484 10.8984L6.34766 10.7422L6.21094 10.5566L6.08398 10.3809L5.98633 10.2441L5.86914 10.0781L5.75195 9.90234L5.625 9.69727L5.47852 9.43359L5.33203 9.13086L5.22461 8.86719L5.12695 8.57422L5.06836 8.33984L5.0293 8.13477L5 7.87109V7.49023L5.0293 7.22656L5.08789 6.95312L5.14648 6.74805L5.24414 6.50391L5.32227 6.34766L5.44922 6.13281L5.54688 6.00586L5.61523 5.91797L5.72266 5.79102L5.83008 5.67383L5.9668 5.53711L6.10352 5.43945L6.25 5.37109L6.40625 5.33203L6.50391 5.32227Z" fill="#1F2937"/>
</g>
<defs>
<clipPath id="clip0_2017_134">
<rect width="20" height="20" fill="white"/>
</clipPath>
</defs>
</svg>
