<svg width="58" height="59" viewBox="0 0 58 59" fill="none" xmlns="http://www.w3.org/2000/svg">
<path fill-rule="evenodd" clip-rule="evenodd" d="M29 14.8385C22.5548 14.8385 18.5286 18.0958 16.9167 24.6128C19.3334 21.3555 22.1536 20.1338 25.375 20.9475C27.2141 21.4121 28.5288 22.7617 29.9812 24.2539C32.352 26.6852 35.0949 29.5 41.0834 29.5C47.5286 29.5 51.5548 26.2427 53.1667 19.7257C50.75 22.983 47.9322 24.2048 44.7084 23.391C42.8693 22.9264 41.5546 21.5768 40.0998 20.0846C37.7315 17.6508 34.991 14.8385 29 14.8385ZM16.9167 29.5C10.4715 29.5 6.44529 32.7573 4.83337 39.2743C7.25004 36.0146 10.0703 34.7952 13.2917 35.609C15.1308 36.0736 16.4455 37.4232 17.9003 38.9154C20.2686 41.3467 23.0115 44.1615 29.0025 44.1615C35.4477 44.1615 39.4739 40.9042 41.0858 34.3872C38.6691 37.6445 35.8489 38.8662 32.6275 38.0525C30.7884 37.5879 29.4737 36.2383 28.0213 34.7461C25.6481 32.3148 22.9052 29.5 16.9167 29.5Z" fill="#FE7F2D"/>
</svg>
