<svg width="59" height="58" viewBox="0 0 59 58" fill="none" xmlns="http://www.w3.org/2000/svg">
<g clip-path="url(#clip0_2041_30)">
<path d="M43.7902 54.3797C43.5714 54.4933 43.5837 54.5392 43.8024 54.4304C43.8665 54.4034 43.9248 54.3649 43.9745 54.3169C43.9745 54.2782 43.9696 54.283 43.7902 54.3797ZM44.2277 54.1525C44.1245 54.2323 44.1245 54.2371 44.2499 54.1743C44.3187 54.1404 44.3777 54.1018 44.3777 54.0897C44.3777 54.0438 44.3482 54.0559 44.2277 54.1525ZM44.5154 53.9809C44.4121 54.0607 44.4121 54.0655 44.5375 54.0027C44.6063 53.9689 44.6653 53.9302 44.6653 53.9181C44.6653 53.8722 44.6358 53.8843 44.5154 53.9809ZM44.803 53.8118C44.6997 53.8915 44.6997 53.8964 44.8251 53.8335C44.8939 53.7997 44.9529 53.761 44.9529 53.7489C44.9529 53.703 44.9234 53.7151 44.803 53.8118ZM45.2012 53.558C44.9997 53.6837 44.9357 53.7683 45.1152 53.6716C45.243 53.5991 45.4495 53.4444 45.4151 53.4396C45.3397 53.4714 45.268 53.5111 45.2012 53.558ZM27.5676 0.0143604C27.4398 0.0264437 27.0366 0.0651104 26.6728 0.0941104C18.2948 0.836027 10.4453 5.28028 5.47457 12.1122C2.72655 15.862 0.940337 20.2087 0.267819 24.7828C0.0318193 26.3754 0.00231934 26.8466 0.00231934 29.0071C0.00231934 31.1676 0.0318193 31.6364 0.267819 33.2314C1.87065 44.1209 9.75453 53.2704 20.4458 56.661C22.3609 57.2676 24.3792 57.6809 26.6728 57.9298C27.5676 58.0264 31.4297 58.0264 32.3245 57.9298C36.2849 57.4996 39.6429 56.5354 42.9519 54.8751C43.4583 54.6189 43.5566 54.5513 43.4878 54.4957C41.8715 52.3963 40.2702 50.2857 38.6842 48.164L33.9667 41.9L28.0568 33.3015C26.0918 30.4244 24.1079 27.5597 22.1052 24.7079C22.0831 24.703 22.0585 28.5238 22.0487 33.1879C22.0314 41.3563 22.0265 41.6849 21.9208 41.8783C21.8205 42.1041 21.6407 42.2869 21.4144 42.393C21.23 42.4849 21.0678 42.5018 20.1975 42.5018H19.1994L18.9339 42.3374C18.7701 42.236 18.6369 42.0933 18.548 41.9242L18.4275 41.668L18.4398 30.3024L18.457 18.932L18.6365 18.7121C18.7571 18.5729 18.9019 18.4558 19.0642 18.3665C19.3002 18.2529 19.3937 18.2409 20.3917 18.2409C21.5693 18.2409 21.7635 18.2868 22.0708 18.6154C24.4631 22.1154 26.8354 25.6285 29.1877 29.1545C33.0177 34.8627 38.2515 42.6564 40.8254 46.4844L45.4962 53.4396L45.7322 53.2874C47.9797 51.8177 50.0177 50.0598 51.792 48.0601C55.5089 43.8785 57.9195 38.7313 58.7344 33.2363C58.9704 31.6437 58.9999 31.1724 58.9999 29.0119C58.9999 26.8514 58.9704 26.3826 58.7344 24.7876C57.1315 13.8981 49.2477 4.74861 38.5564 1.35803C36.5584 0.732709 34.5008 0.309215 32.4154 0.0941104C31.8623 0.038527 28.0494 -0.0243063 27.5725 0.0216104L27.5676 0.0143604ZM39.6429 17.5545C39.7804 17.6225 39.9028 17.7166 40.0028 17.8316C40.1028 17.9465 40.1786 18.0799 40.2256 18.2239C40.2723 18.3714 40.2821 21.5227 40.2723 28.6253L40.2551 38.8188L38.4261 36.0638L36.5922 33.3088V25.8993C36.5922 21.1094 36.6143 18.4173 36.6487 18.2868C36.6904 18.1362 36.7623 17.9953 36.8603 17.8724C36.9582 17.7496 37.0802 17.6472 37.219 17.5714C37.455 17.453 37.5411 17.4409 38.4482 17.4409C39.3012 17.4409 39.4512 17.453 39.6429 17.5545Z" fill="#FE7F2D"/>
</g>
<defs>
<clipPath id="clip0_2041_30">
<rect width="59" height="58" fill="white"/>
</clipPath>
</defs>
</svg>
