<svg width="58" height="58" viewBox="0 0 58 58" fill="none" xmlns="http://www.w3.org/2000/svg">
<g clip-path="url(#clip0_2041_36)">
<path d="M29.5994 16.1554C28.0141 22.6659 28.1156 22.3179 26.6776 28.2726C26.6462 28.8212 26.1919 29.2538 25.6385 29.2538C25.5781 29.2538 25.5176 29.2489 25.4596 29.2393H25.4669H23.8356C23.7873 29.2489 23.7293 29.2538 23.6737 29.2538C23.1831 29.2538 22.7796 28.8889 22.7167 28.4176V28.4128C21.3223 23.9516 19.4542 17.7553 18.1976 13.6107C17.7336 12.0809 18.0381 12.1172 19.2512 12.1486C19.6717 12.1607 20.0777 12.1486 20.4958 12.1486C20.5248 12.1462 20.5586 12.1438 20.5949 12.1438C21.0686 12.1438 21.4601 12.4942 21.5253 12.9485V12.9534C21.9337 14.4154 22.2044 15.5368 24.5365 24.7467C24.58 24.9279 24.638 25.0995 24.696 25.2663H24.8192C24.8748 25.0391 24.9425 24.8264 25.0005 24.5969C25.8834 20.8704 26.763 17.1406 27.6395 13.4077C27.9126 12.2477 28.3983 12.1389 29.5728 12.1389H30.4331C31.2065 12.151 31.453 12.3081 31.6463 13.079C32.3254 15.7301 34.3095 24.6065 34.6696 25.5829C35.2496 23.5094 34.4666 26.477 37.8982 13.2385C38.1351 12.3226 38.3622 12.1414 39.2926 12.1414H40.7209C41.3323 12.1534 41.5136 12.3444 41.3661 12.9461C41.0931 14.0239 41.0375 14.0674 36.6899 27.9971C36.3371 29.1184 36.2138 29.2199 35.0369 29.2199H33.8358C33.0093 29.2199 32.7942 29.0725 32.5912 28.2678C32.1031 26.4335 29.9522 17.429 29.5994 16.1603V16.1554ZM14.2197 28.7487C14.3841 29.0846 14.7224 29.3118 15.1139 29.3118C15.3894 29.3118 15.6359 29.2006 15.8171 29.0194L16.5301 28.5433C17.3034 28.0334 17.3566 27.8304 16.9385 27.0135C16.489 26.158 16.2231 25.1454 16.2231 24.07C16.2231 24.0338 16.2231 23.9975 16.2231 23.9613V23.9661C16.2231 23.6133 16.2908 17.6586 16.1216 16.4019C15.9718 14.2994 14.5146 12.5739 12.5667 12.0254L12.5329 12.0181C11.6798 11.7813 10.7011 11.6459 9.68847 11.6459C9.38397 11.6459 9.07947 11.658 8.78222 11.6822L8.82089 11.6798C7.04222 11.7499 5.38922 12.2211 3.92714 13.0017L3.98755 12.9727C3.76764 13.0911 3.6033 13.2869 3.52597 13.5213L3.52355 13.5285C3.46072 13.8137 3.42447 14.1424 3.42447 14.4783C3.42447 14.6257 3.43172 14.7731 3.4438 14.9181L3.44139 14.8988C3.50905 15.5682 3.73622 15.6914 4.36939 15.4788C4.94939 15.2854 5.5028 15.0389 6.08039 14.8674C6.91414 14.558 7.87597 14.3792 8.8813 14.3792C9.66189 14.3792 10.4159 14.4879 11.1312 14.6885L11.0732 14.674C11.8393 14.9036 12.4362 15.4812 12.6876 16.2183L12.6924 16.2352C12.8785 16.8587 12.9872 17.574 12.9872 18.3159C12.9872 18.5431 12.9776 18.7703 12.9582 18.9926L12.9606 18.9636C12.9606 19.5871 12.9486 19.5871 12.3371 19.4735C11.298 19.2149 10.1066 19.0651 8.87889 19.0651C8.42697 19.0651 7.97747 19.0844 7.53522 19.1255L7.59322 19.1207C5.83872 19.2488 4.30655 20.1019 3.27464 21.3754L3.26497 21.3875C2.63664 22.2575 2.25964 23.3474 2.25964 24.5244C2.25964 25.0004 2.32005 25.4596 2.43605 25.8994L2.4288 25.8608C2.68014 27.5089 3.8498 28.8284 5.38922 29.2973L5.41822 29.3045C6.09489 29.5462 6.87547 29.6864 7.68989 29.6864C9.3018 29.6864 10.7881 29.1378 11.9674 28.217L11.9529 28.2291C12.3831 27.9125 12.7697 27.5283 13.2096 27.1513C13.5624 27.7168 13.8669 28.2484 14.2173 28.7366L14.2197 28.7487ZM12.4797 21.7718H12.4918C12.7601 21.7718 12.9776 21.9893 12.9776 22.2575C12.9776 22.2914 12.9751 22.3228 12.9679 22.3566V22.3542C12.9437 22.7844 12.98 23.2145 12.9341 23.6447C12.8132 24.9086 12.023 25.9623 10.9282 26.4577L10.9065 26.4674C10.196 26.8395 9.35739 27.0594 8.46564 27.0594C8.28439 27.0594 8.10555 27.0498 7.92914 27.0329L7.95089 27.0353C6.67247 26.9604 5.66472 25.9067 5.66472 24.6162C5.66472 24.418 5.68889 24.2247 5.7348 24.0386L5.73239 24.0555C5.79522 22.7312 6.84405 21.6703 8.15872 21.5881H8.16597C8.67347 21.5059 9.2583 21.46 9.8528 21.46C10.7905 21.46 11.704 21.576 12.574 21.7935L12.4966 21.7766L12.4797 21.7718ZM51.9826 29.145C53.9763 28.4756 55.3852 26.6244 55.3852 24.4446C55.3852 24.1039 55.3514 23.7704 55.2861 23.4489L55.291 23.4804C55.0324 21.9023 53.928 20.6359 52.4659 20.1478L52.4369 20.1381C50.2329 19.4469 48.4276 18.7485 46.678 17.951L46.9897 18.0791C46.4846 17.8254 46.1415 17.3179 46.1294 16.7282C46.1149 16.6388 46.1076 16.5349 46.1076 16.4309C46.1076 15.4184 46.8761 14.587 47.8621 14.4855H47.8694C48.3793 14.3647 48.9641 14.297 49.5659 14.297C50.0903 14.297 50.6051 14.3502 51.1005 14.4493L51.0521 14.442C51.8786 14.6015 52.6713 14.9181 53.4761 15.1549C53.7926 15.2564 54.1455 15.3918 54.3605 14.9737C54.4717 14.7393 54.537 14.4638 54.537 14.1762C54.537 13.456 54.1358 12.8301 53.5437 12.5111L53.5341 12.5063C52.3402 11.9359 50.9385 11.6049 49.4595 11.6049C48.14 11.6049 46.8834 11.8707 45.7379 12.3492L45.8007 12.325C44.0486 13.021 42.8331 14.703 42.8331 16.6678C42.8331 18.5504 43.9495 20.1744 45.5566 20.909L45.5856 20.9211C46.4581 21.3416 47.4078 21.5905 48.3261 21.9289C49.2445 22.2672 50.1604 22.5862 51.057 22.9584C51.6756 23.3015 52.0889 23.9516 52.0889 24.6984C52.0889 25.3895 51.7361 25.9961 51.1996 26.3514L51.1923 26.3562C48.0555 28.0962 43.8456 26.0831 43.3551 25.926C42.9829 25.8028 42.7557 25.9502 42.6421 26.3465C42.5503 26.5616 42.4971 26.8129 42.4971 27.0764C42.4971 27.9681 43.1134 28.7173 43.9447 28.9154L43.9568 28.9179C45.24 29.4326 46.7263 29.7299 48.2826 29.7299C49.6021 29.7299 50.8733 29.5148 52.0599 29.1184L51.9753 29.1426L51.9826 29.145ZM33.5337 47.5721C39.5706 46.9244 45.0515 45.0298 49.8776 42.1491L49.694 42.2506C50.6002 41.7189 51.4485 41.0906 52.3088 40.4719C53.1353 39.8919 52.6713 38.3888 51.028 39.0896C45.3633 41.5764 38.7851 43.1665 31.8759 43.4904L31.7526 43.4952C31.0276 43.5314 30.1794 43.5508 29.3263 43.5508C26.5423 43.5508 23.8066 43.3381 21.1362 42.9273L21.4335 42.9659C13.9007 41.8809 7.11714 39.4424 1.06339 35.8924L1.3268 36.0349C1.11414 35.8924 0.870055 35.7764 0.609055 35.699L0.589721 35.6942C0.0338879 35.5709 -0.282695 36.2259 0.316638 36.7914C7.73339 43.6499 17.6901 47.8549 28.6303 47.8549H28.6641H28.6617C30.293 47.763 31.9242 47.7534 33.5313 47.5721H33.5337ZM53.319 37.1321C54.9961 37.2239 55.5157 37.8015 55.0976 39.4183C54.6675 41.0954 54.044 42.7267 53.5244 44.3797C53.4229 44.7084 53.0483 45.0926 53.4326 45.3778C53.8531 45.6726 54.1696 45.2642 54.4524 45.0056C55.552 43.9592 56.4171 42.6808 56.9754 41.2477L56.9996 41.1776C57.6231 39.8146 57.9855 38.2196 57.9855 36.54C57.9855 36.5014 57.9855 36.4651 57.9855 36.4264V36.4313C57.9614 35.7304 57.7825 35.4332 57.101 35.2423C56.5597 35.0755 55.9241 34.9474 55.2716 34.8846L55.233 34.8822C54.7907 34.8266 54.2808 34.7952 53.7612 34.7952C51.7409 34.7952 49.8317 35.2713 48.1376 36.1147L48.2101 36.0809C47.8355 36.2839 47.5117 36.5062 47.2145 36.7575L47.2241 36.7503C47.1009 36.8518 46.8616 37.3496 47.4972 37.4414C47.5552 37.4463 47.6253 37.4487 47.693 37.4487C47.8597 37.4487 48.0241 37.4342 48.1811 37.4052L48.1642 37.4076C49.4354 37.2264 50.9047 37.1224 52.3958 37.1224C52.7196 37.1224 53.041 37.1273 53.3625 37.1369H53.3166L53.319 37.1321Z" fill="#FE7F2D"/>
</g>
<defs>
<clipPath id="clip0_2041_36">
<rect width="58" height="58" fill="white"/>
</clipPath>
</defs>
</svg>
