<svg width="58" height="59" viewBox="0 0 58 59" fill="none" xmlns="http://www.w3.org/2000/svg">
<g clip-path="url(#clip0_2041_25)">
<path d="M29 24.8538C29.8918 24.8538 30.7636 25.1222 31.5057 25.6252C32.2478 26.1282 32.827 26.8433 33.1704 27.6805C33.5138 28.5176 33.6061 29.4394 33.4356 30.3298C33.2651 31.2202 32.8395 32.0393 32.2123 32.6842C31.5851 33.329 30.7844 33.7706 29.9109 33.9535C29.0375 34.1364 28.1304 34.0524 27.3039 33.712C26.4773 33.3715 25.7682 32.79 25.2659 32.0405C24.7635 31.291 24.4904 30.4071 24.4809 29.5C24.4777 28.8931 24.5921 28.2915 24.8175 27.7295C25.0428 27.1675 25.3748 26.6562 25.7945 26.2248C26.2141 25.7933 26.7132 25.4502 27.2632 25.215C27.8132 24.9797 28.4034 24.857 29 24.8538ZM17.8109 49.1667C19.3334 50.1009 22.6442 48.675 26.5109 44.9875C25.2185 43.4936 24.0006 41.9347 22.8617 40.3167C20.9125 40.0946 18.9764 39.7664 17.0617 39.3334C15.8292 44.5942 16.2884 48.2079 17.8109 49.1667ZM19.5267 35.0559L18.8259 33.8021C18.5527 34.4926 18.3187 35.1985 18.125 35.9163C18.7775 36.0638 19.5025 36.1867 20.2517 36.3096L19.5267 35.0559ZM35.3317 33.1875L37.2892 29.5L35.3317 25.8125C34.6067 24.5096 33.8334 23.3542 33.1325 22.1988C31.8275 22.125 30.45 22.125 29 22.125C27.55 22.125 26.1725 22.125 24.8675 22.125C24.1667 23.2804 23.3934 24.4359 22.6684 25.7388L20.7109 29.5L22.6684 33.1875C23.3934 34.4904 24.1667 35.6459 24.8675 36.8013C26.1725 36.8013 27.55 36.8013 29 36.8013C30.45 36.8013 31.8275 36.8013 33.1325 36.8013C33.8334 35.6459 34.6067 34.4904 35.3317 33.1875ZM29 16.6675C28.5409 17.2084 28.0575 17.7738 27.5742 18.4375H30.4259C29.9425 17.7738 29.4592 17.2084 29 16.6675ZM29 42.3325C29.4592 41.7917 29.9425 41.2263 30.4259 40.5625H27.5742C28.0575 41.2263 28.5409 41.7917 29 42.3325ZM40.165 9.83336C38.6667 8.89919 35.3317 10.325 31.4892 14.0125C32.7816 15.5065 33.9995 17.0654 35.1384 18.6834C37.0858 18.8729 39.0219 19.1684 40.9384 19.5684C42.1709 14.3075 41.7117 10.6938 40.165 9.73503M38.4734 23.8459L39.1742 25.0996C39.4474 24.4091 39.6814 23.7032 39.875 22.9854C39.2225 22.8379 38.4975 22.715 37.7484 22.5921L38.4734 23.8459ZM41.9775 6.63753C45.53 8.70253 45.9167 14.1354 44.3942 20.4779C50.5325 22.3217 54.955 25.3946 54.955 29.5246C54.955 33.6546 50.5325 36.7275 44.3942 38.5713C45.8925 44.9138 45.5059 50.3467 41.9775 52.4117C38.4492 54.4767 33.64 52.1167 29 47.6179C24.36 52.1167 19.5509 54.4767 15.9984 52.4117C12.4459 50.3467 12.0834 45.0367 13.5817 38.5713C7.44337 36.7275 3.02087 33.6546 3.02087 29.5246C3.02087 25.3946 7.44337 22.2971 13.5817 20.4534C12.0834 14.1109 12.47 8.67794 15.9984 6.61294C19.5267 4.54794 24.36 6.90794 29 11.4067C33.64 6.90794 38.4492 4.54794 41.9775 6.61294M41.2767 29.5C42.116 31.3097 42.8582 33.1644 43.5 35.0559C48.575 33.5071 51.4267 31.2946 51.4267 29.5C51.4267 27.7054 48.5025 25.4929 43.5 23.9442C42.8582 25.8357 42.116 27.6903 41.2767 29.5ZM16.7234 29.5C15.8841 27.6903 15.1419 25.8357 14.5 23.9442C9.42504 25.4929 6.57337 27.7054 6.57337 29.5C6.57337 31.2946 9.49754 33.5071 14.5 35.0559C15.1419 33.1644 15.8841 31.3097 16.7234 29.5ZM38.4734 35.0559L37.7484 36.3096C38.4975 36.3096 39.2225 36.0638 39.875 35.9163C39.6814 35.1985 39.4474 34.4926 39.1742 33.8021L38.4734 35.0559ZM31.4167 44.9875C35.2592 48.675 38.6667 50.1009 40.0925 49.1667C41.5184 48.2325 42.0984 44.6925 40.8659 39.3334C38.9494 39.7334 37.0133 40.0288 35.0659 40.2184C33.9296 41.8699 32.7117 43.4617 31.4167 44.9875ZM19.5267 23.9442L20.2517 22.6904C19.5025 22.6904 18.7775 22.9363 18.125 23.0838C18.3187 23.8016 18.5527 24.5074 18.8259 25.1979L19.5267 23.9442ZM26.5834 14.0125C22.6684 10.325 19.3334 8.89919 17.8109 9.83336C16.2884 10.7675 15.8292 14.3075 17.0617 19.6667C18.9781 19.2667 20.9142 18.9713 22.8617 18.7817C24.0215 17.1284 25.2637 15.5366 26.5834 14.0125Z" fill="#FE7F2D"/>
</g>
<defs>
<clipPath id="clip0_2041_25">
<rect width="58" height="59" fill="white"/>
</clipPath>
</defs>
</svg>
