<svg width="59" height="59" viewBox="0 0 59 59" fill="none" xmlns="http://www.w3.org/2000/svg">
<g clip-path="url(#clip0_2041_38)">
<path d="M50.764 32.8114C50.8359 32.8095 50.9207 32.8077 51.0074 32.8077C52.545 32.8077 53.9998 33.1654 55.2904 33.8033L55.2332 33.7775C56.4095 34.3509 57.3757 35.199 58.0744 36.2389L58.091 36.2647C58.6423 37.0686 58.9705 38.0624 58.9705 39.1318C58.9705 39.2092 58.9687 39.2866 58.965 39.3622V39.3512C58.9078 40.4187 58.4229 41.3608 57.678 42.0209L57.6744 42.0246C57.2669 42.4247 56.7746 42.7381 56.227 42.9373L56.1994 42.9465C55.8921 43.0079 55.7231 42.9618 55.6923 42.8082C55.6616 42.6545 55.7999 42.4855 56.1072 42.3012C56.9405 41.796 57.5435 40.981 57.7629 40.0204L57.7684 39.9965C57.7739 39.919 57.7776 39.8287 57.7776 39.7365C57.7776 39.1631 57.6412 38.621 57.3996 38.1417L57.4089 38.1619C57.0088 37.3267 56.4114 36.6408 55.6757 36.1449L55.6573 36.1338C54.5566 35.4258 53.2364 34.9612 51.8168 34.845L51.7873 34.8432C51.3042 34.7713 50.7474 34.7307 50.1795 34.7307C48.7027 34.7307 47.2922 35.0091 45.9942 35.5162L46.0716 35.4885C46.339 36.1135 46.5068 36.8381 46.5307 37.5978V37.607C46.5012 39.1649 45.6642 40.5201 44.4196 41.276L44.3994 41.2871C43.8278 41.6927 43.1751 42.0486 42.48 42.3251L42.4155 42.3473C41.9933 42.5538 41.4973 42.6736 40.9737 42.6736C40.9128 42.6736 40.8538 42.6718 40.7948 42.6681H40.804C39.6376 42.4235 39.361 41.4094 39.9744 39.6259C40.2417 38.8497 40.616 38.1767 41.0898 37.5848L41.0788 37.5978C41.6854 36.8049 42.3509 36.1098 43.0866 35.494L43.1069 35.4774L42.9262 35.2083C42.5888 34.633 42.279 33.9637 42.0301 33.2649L42.0043 33.1801C41.8199 32.5655 41.6663 31.9823 41.5434 31.4304L41.4512 30.7851L40.5293 32.5348C39.7304 34.0098 38.9621 35.2998 38.2246 36.4048L37.9481 36.8658C38.2578 37.618 38.4864 38.4901 38.5897 39.4009L38.5934 39.447C38.6008 39.5337 38.6044 39.6369 38.6044 39.7402C38.6044 41.1378 37.9149 42.3731 36.8566 43.1272L36.8437 43.1364C36.3385 43.448 35.7356 43.7706 35.1105 44.0583L34.9999 44.1043C34.3491 44.3864 33.595 44.5708 32.804 44.6114H32.7874C32.7266 44.6151 32.6547 44.6188 32.5828 44.6188C32.1218 44.6188 31.6849 44.5137 31.294 44.3274L31.3124 44.3348C31.0783 44.1338 30.9308 43.8388 30.9308 43.5088C30.9308 43.341 30.9695 43.1806 31.0377 43.0387L31.034 43.046C31.7715 42.0117 32.4979 41.1119 33.2705 40.2528L33.2465 40.2804L35.2746 37.701L34.9077 36.8713C34.6127 36.3293 34.3306 35.6895 34.1039 35.0257L34.078 34.9372C33.8937 34.3226 33.74 33.7394 33.6171 33.1875L33.5249 32.5422L32.603 34.7547C31.8668 36.4743 31.1907 37.9487 30.5749 39.1778C29.6567 41.0216 28.8885 42.4351 28.2702 43.4185L28.0859 43.695C27.3496 44.8615 26.6428 45.4448 25.9655 45.4448C25.2883 45.4448 24.8292 45.0145 24.5883 44.1541C24.4113 43.5199 24.308 42.7916 24.308 42.0393C24.308 41.973 24.308 41.9066 24.3099 41.8402V41.8494L24.4942 40.5588V40.651C24.0026 41.8175 23.5109 42.8924 23.0192 43.8757C22.6929 44.5137 22.3573 45.0576 21.9812 45.5701L22.0052 45.5351C21.6254 45.9333 21.0907 46.1804 20.4988 46.1804C20.4933 46.1804 20.4896 46.1804 20.4841 46.1804C20.4454 46.1841 20.4011 46.1841 20.3569 46.1841C19.8904 46.1841 19.4663 46.0071 19.1455 45.7176L19.1474 45.7195C18.5039 45.0594 18.0264 44.2353 17.7793 43.3152L17.7701 43.2765C17.4677 42.4376 17.2944 41.4678 17.2944 40.4574C17.2944 40.3265 17.2981 40.1974 17.3036 40.0702V40.0887C17.4493 38.621 17.7424 37.2769 18.172 35.9955L18.1333 36.1264L14.8164 38.0624V38.1546C15.2976 39.1539 15.5797 40.3265 15.5797 41.5655C15.5797 41.7923 15.5705 42.0172 15.552 42.2385L15.5539 42.209C15.4562 44.108 14.8496 45.8467 13.8705 47.3162L13.8945 47.2793C12.8675 48.9092 11.387 50.1684 9.62808 50.8967L9.56723 50.9188C8.57714 51.3632 7.41926 51.6232 6.20239 51.6232C5.4317 51.6232 4.68314 51.5199 3.97514 51.3245L4.03414 51.3374C3.44783 51.1401 2.96845 50.7492 2.66423 50.244L2.6587 50.233C2.22911 49.6098 1.95808 48.8483 1.91567 48.0278V48.0168C1.89539 47.8306 1.88433 47.6148 1.88433 47.3954C1.88433 46.4496 2.10004 45.5535 2.48539 44.7552L2.46879 44.7921C3.52711 42.987 4.99104 41.5249 6.73892 40.4961L6.79423 40.4666C8.03139 39.6093 9.45292 38.7778 10.9371 38.0532L11.1326 37.9665L11.5935 37.6899C11.0404 37.2597 10.0263 36.5222 8.55133 35.4774C6.58036 34.1573 4.86751 32.8243 3.25239 31.3825L3.29848 31.423C1.73683 30.0789 0.599231 28.2831 0.0885127 26.2384L0.0737627 26.1683C0.0258252 25.8844 -0.00183105 25.5581 -0.00183105 25.2262C-0.00183105 24.1863 0.265513 23.2091 0.733825 22.3592L0.719075 22.3905C1.75158 20.1706 3.18232 18.2992 4.93758 16.7947L4.9597 16.7763C6.85876 14.9823 9.00857 13.4207 11.3428 12.1558L11.5032 12.0766C13.5884 10.8726 16.024 9.75344 18.5629 8.85553L18.8763 8.75966C21.2345 7.89678 23.9577 7.39159 26.7971 7.38238H26.8008C26.9298 7.37869 27.0829 7.375 27.2359 7.375C29.524 7.375 31.6885 7.90416 33.6134 8.84631L33.5286 8.80759C35.188 9.56353 36.4307 10.9869 36.9285 12.7274L36.9395 12.7717C37.0926 13.3653 37.1792 14.0475 37.1792 14.75C37.1792 15.9153 36.9377 17.0252 36.5044 18.0319L36.5247 17.9784C35.7356 19.8904 34.6127 21.5184 33.2115 22.8588L33.2059 22.8643C31.7863 24.2711 30.0845 25.3958 28.1946 26.1462L28.0932 26.1813C26.113 27.0312 23.8139 27.5659 21.4004 27.6544L21.3654 27.6563C21.0114 27.6968 20.6021 27.7189 20.1872 27.7189C19.0957 27.7189 18.043 27.5622 17.0473 27.2691L17.1266 27.2893C16.2361 27.0054 15.4672 26.5648 14.8145 25.9932L14.8219 25.9987C14.3647 25.6263 13.9922 25.1672 13.7267 24.6454L13.7157 24.6214C13.5313 24.1298 13.5159 23.8378 13.6696 23.7457C13.8232 23.6535 13.9308 23.6381 13.9922 23.6996L14.4532 24.1605C14.9676 24.638 15.5815 25.0142 16.26 25.2538L16.2969 25.2649C17.2299 25.5894 18.3066 25.7775 19.4258 25.7775C19.7853 25.7775 20.1393 25.759 20.4878 25.7203L20.4454 25.724C23.4285 25.3718 26.1186 24.3541 28.4399 22.8238L28.3716 22.8662C30.3334 21.6991 31.9209 20.095 33.0382 18.1831L33.0714 18.1204C33.6263 17.3054 33.9582 16.2988 33.9582 15.2146C33.9582 14.549 33.8328 13.9111 33.6042 13.3248L33.6171 13.3598C32.9275 12.2702 31.8121 11.5032 30.5104 11.2911L30.4846 11.2874C29.4742 11.0385 28.3126 10.8947 27.1197 10.8947C26.1591 10.8947 25.2188 10.9869 24.3099 11.1639L24.402 11.1492C21.2916 11.7097 18.5113 12.6703 15.9466 13.9904L16.1144 13.9111C8.55747 17.7215 4.65548 21.6235 4.40842 25.6171V25.7074C4.40842 27.317 5.04083 28.7791 6.07148 29.8595L6.06964 29.8577C7.24411 31.1631 8.54211 32.3154 9.95995 33.311L10.0319 33.359C11.3243 34.3251 12.4675 35.3226 13.5313 36.3993L13.5331 36.403L13.7175 36.5874L19.6175 33.3627C20.2905 32.3892 21.0999 31.5668 22.0291 30.9031L22.0586 30.8828C22.7961 30.2633 23.7328 29.8595 24.7597 29.7784L24.7763 29.7766C24.8132 29.7729 24.8556 29.7729 24.8999 29.7729C25.5876 29.7729 26.1776 30.1877 26.432 30.7814L26.4357 30.7925C26.6293 31.2258 26.7418 31.7328 26.7418 32.2656C26.7418 32.4279 26.7307 32.5883 26.7104 32.7468L26.7123 32.7284L26.5334 33.6374L26.81 33.453C27.0017 33.3073 27.2433 33.2207 27.5051 33.2207C27.671 33.2207 27.8277 33.2557 27.9697 33.3184L27.9623 33.3147C28.3163 33.4069 28.5726 33.724 28.5726 34.1002C28.5726 34.1647 28.5652 34.2274 28.5505 34.2882L28.5523 34.2827L28.2758 35.2968C27.7226 37.508 27.3545 39.1053 27.1714 40.0887C27.0792 40.4076 27.0275 40.7745 27.0275 41.1543C27.0275 41.2336 27.0294 41.3111 27.0349 41.3885V41.3774C27.0656 41.7462 27.1117 41.9306 27.1732 41.9306C27.2347 41.9306 27.357 41.7462 27.5401 41.3774L27.8167 40.7321C27.8781 40.7321 27.8781 40.7629 27.8167 40.8243L28.8307 38.704C31.2276 33.421 32.5176 30.471 32.7008 29.854L33.2539 28.1043C33.3153 27.9814 33.5612 27.8591 33.9914 27.7374C34.4284 27.6194 34.928 27.5512 35.4443 27.5512C35.4867 27.5512 35.5291 27.5512 35.5696 27.553H35.5641C36.4245 27.553 36.8547 27.7681 36.8547 28.1983L36.7625 28.6593C36.556 29.2271 36.3514 29.937 36.1928 30.6634L36.1725 30.7796C36.1357 31.0174 36.1135 31.2903 36.1135 31.5705C36.1135 31.943 36.1504 32.3062 36.2223 32.6583L36.2168 32.6233L36.309 32.9902C36.497 33.7591 36.7828 34.4339 37.1571 35.0497L37.1387 35.0183C37.8749 33.7904 38.5817 32.5311 39.259 31.2405C39.7937 30.35 40.2915 29.3175 40.6916 28.237L40.734 28.108C40.8723 27.4129 41.0308 26.8266 41.2244 26.255L41.1949 26.3583C41.2564 26.1739 41.5188 26.0356 41.9822 25.9434C42.421 25.8549 42.9244 25.8051 43.4388 25.8051H43.5051H43.5014C44.3619 25.8051 44.821 26.0202 44.8787 26.4504L44.6944 26.8173C44.4749 27.4368 44.2832 28.1817 44.1541 28.9469L44.1431 29.0298C44.1265 29.2087 44.1154 29.4152 44.1154 29.6254C44.1154 30.066 44.1597 30.4975 44.2426 30.9142L44.2353 30.8718V31.2387C44.4473 32.0425 44.7626 32.7487 45.1756 33.3885L45.1571 33.359L45.4337 34.0043C46.9732 33.2483 48.7838 32.8058 50.6976 32.8058H50.7695H50.7658L50.764 32.8114ZM11.2358 46.1841C12.5172 44.8603 13.3082 43.0534 13.3082 41.0622C13.3082 40.2933 13.1902 39.5521 12.9726 38.8552L12.9874 38.9068L11.5124 39.8287C10.0079 40.686 8.7062 41.6429 7.52804 42.7308L7.54279 42.7178C6.64858 43.5402 5.98851 44.604 5.66401 45.8043L5.65295 45.8504C5.37639 46.9874 5.51467 47.7249 6.06779 48.0629C6.4052 48.2178 6.80161 48.3081 7.21645 48.3081C7.67001 48.3081 8.09961 48.2012 8.47758 48.0094L8.46098 48.0168C9.55617 47.6185 10.4836 46.9861 11.2211 46.1767L11.2266 46.1712L11.2358 46.1841ZM23.5834 37.6955C23.8907 36.8965 24.2287 35.9439 24.5975 34.8377C25.0891 33.3627 25.2582 32.5029 25.1045 32.2583C24.9509 32.0136 24.6589 31.9829 24.2287 32.1661C23.7162 32.415 23.2866 32.7561 22.9436 33.1746L22.9381 33.182C22.5546 33.6669 22.1895 34.2089 21.865 34.7787L21.8319 34.8413C21.4594 35.4516 21.1441 36.1541 20.9247 36.899L20.9081 36.9617C20.5523 37.9259 20.3458 39.0414 20.3458 40.203C20.3458 40.3597 20.3495 40.5146 20.3569 40.6694V40.6473C20.4183 41.8753 20.615 42.5359 20.9469 42.6293C21.2787 42.7228 21.6628 42.2772 22.0992 41.2926C22.5214 40.5312 22.8975 39.6462 23.1778 38.7188L23.2036 38.6192C23.3868 38.1841 23.5121 37.8762 23.5797 37.6955H23.5834ZM33.8089 42.5814C35.0866 42.008 35.9863 40.8003 36.1117 39.3714L36.1135 39.3567V39.2645L35.0995 40.5551L33.2576 42.5833C33.2299 42.6054 33.2115 42.6386 33.2115 42.6754C33.2115 42.7123 33.2299 42.7455 33.2557 42.7676C33.3147 42.8279 33.4991 42.7664 33.8089 42.5833V42.5814ZM41.7351 40.8298C43.129 40.4316 44.132 39.1686 44.132 37.6733C44.132 37.6494 44.132 37.6254 44.132 37.6014V37.6051C44.1136 37.2364 44.0472 36.8898 43.9384 36.5616L43.9458 36.5892C43.2286 37.2272 42.6404 37.9905 42.2145 38.8515L42.1942 38.8939C41.6399 39.9989 41.485 40.643 41.7296 40.8262L41.7351 40.8298Z" fill="#FE7F2D"/>
</g>
<defs>
<clipPath id="clip0_2041_38">
<rect width="59" height="59" fill="white"/>
</clipPath>
</defs>
</svg>
