<svg width="59" height="58" viewBox="0 0 59 58" fill="none" xmlns="http://www.w3.org/2000/svg">
<g clip-path="url(#clip0_2041_34)">
<path d="M0 6.34375C0 2.84019 2.88916 0 6.45312 0H52.5469C56.1108 0 59 2.84019 59 6.34375V13.5938C59 15.0953 57.7617 16.3125 56.2344 16.3125C54.707 16.3125 53.4688 15.0953 53.4688 13.5938V6.34375C53.4688 5.84325 53.0561 5.4375 52.5469 5.4375H6.45312C5.94399 5.4375 5.53125 5.84325 5.53125 6.34375V51.6562C5.53125 52.1569 5.94399 52.5625 6.45312 52.5625H56.2344C57.7617 52.5625 59 53.7798 59 55.2812C59 56.7827 57.7617 58 56.2344 58H6.45312C2.88916 58 0 55.1598 0 51.6562V6.34375ZM30.4219 20.8438C31.9493 20.8438 33.1875 22.061 33.1875 23.5625V38.0625C33.1875 41.7049 32.1697 44.4367 30.0721 46.1549C28.0701 47.7949 25.6423 48.0312 23.9688 48.0312C22.4414 48.0312 21.2031 46.814 21.2031 45.3125C21.2031 43.811 22.4414 42.5938 23.9688 42.5938C25.2453 42.5938 26.044 42.377 26.531 41.9779C26.9224 41.6571 27.6562 40.7638 27.6562 38.0625V23.5625C27.6562 22.061 28.8944 20.8438 30.4219 20.8438ZM41.5791 23.8529C43.1231 22.0459 45.5432 20.8438 48.8594 20.8438C51.9381 20.8438 54.2608 21.8793 55.8265 23.5074C56.8756 24.5986 56.8262 26.3194 55.7163 27.3508C54.6063 28.3822 52.8559 28.3338 51.8068 27.2426C51.4015 26.8213 50.594 26.2812 48.8594 26.2812C47.013 26.2812 46.2066 26.8916 45.8146 27.3502C45.3319 27.9149 45.1719 28.623 45.1719 29C45.1719 29.377 45.3319 30.0851 45.8146 30.6498C46.2066 31.1084 47.013 31.7188 48.8594 31.7188C49.1385 31.7188 49.4081 31.7594 49.6618 31.835C52.107 32.1772 53.9551 33.2503 55.2177 34.7279C56.671 36.4287 57.1562 38.4395 57.1562 39.875C57.1562 41.3105 56.671 43.3213 55.2177 45.0221C53.6738 46.8292 51.2537 48.0312 47.9375 48.0312C44.8588 48.0312 42.5361 46.9956 40.9703 45.3676C39.9212 44.2765 39.9707 42.5557 41.0806 41.524C42.1905 40.4927 43.941 40.5413 44.9901 41.6324C45.3953 42.0536 46.2029 42.5938 47.9375 42.5938C49.7838 42.5938 50.5903 41.9833 50.9823 41.5247C51.465 40.96 51.625 40.252 51.625 39.875C51.625 39.498 51.465 38.79 50.9823 38.2253C50.5903 37.7667 49.7838 37.1562 47.9375 37.1562C47.6584 37.1562 47.3888 37.1157 47.1351 37.0399C44.6899 36.6977 42.8417 35.6247 41.5791 34.1471C40.1259 32.4461 39.6406 30.4355 39.6406 29C39.6406 27.5645 40.1259 25.5539 41.5791 23.8529Z" fill="#FE7F2D"/>
</g>
<defs>
<clipPath id="clip0_2041_34">
<rect width="59" height="58" fill="white"/>
</clipPath>
</defs>
</svg>
