<svg width="59" height="59" viewBox="0 0 59 59" fill="none" xmlns="http://www.w3.org/2000/svg">
<path d="M38.1508 22.5436C34.3085 22.5436 31.1944 25.6576 31.1944 29.5C31.1944 33.3424 34.3085 36.4565 38.1508 36.4565H38.3758C42.2182 36.4565 45.3323 33.3424 45.3323 29.5C45.3323 25.6576 42.2182 22.5436 38.3758 22.5436H38.1508ZM38.3758 39.8453H38.1508C32.4371 39.8453 27.8056 35.2138 27.8056 29.5C27.8056 23.7862 32.4371 19.1547 38.1508 19.1547H38.3758C44.0896 19.1547 48.7211 23.7862 48.7211 29.5C48.7211 35.2138 44.0896 39.8453 38.3758 39.8453ZM20.6242 39.8453C16.7818 39.8453 13.6658 42.9594 13.6658 46.8018C13.6658 50.6442 16.7799 53.7582 20.6223 53.7582C20.6426 53.7582 20.6647 53.7582 20.685 53.7582H20.6813C20.6868 53.7582 20.6942 53.7582 20.7016 53.7582C24.6122 53.7582 27.7871 50.5981 27.8074 46.6911V39.8453H20.6242ZM20.6795 57.1489C20.6555 57.1489 20.626 57.1489 20.5965 57.1489C14.8827 57.1489 10.2512 52.5174 10.2512 46.8036C10.2512 41.0898 14.8827 36.4583 20.5965 36.4583C20.6057 36.4583 20.6149 36.4583 20.6242 36.4583H31.1944V46.6911C31.1723 52.4713 26.4799 57.1489 20.6979 57.1489C20.6924 57.1489 20.6868 57.1489 20.6813 57.1489H20.6795ZM20.6242 22.5436C16.7818 22.5436 13.6677 25.6576 13.6677 29.5C13.6677 33.3424 16.7818 36.4583 20.6242 36.4583L27.8056 36.4565V22.5454L20.6242 22.5436ZM31.1925 39.8453H20.6242C14.9104 39.8453 10.2789 35.2138 10.2789 29.5C10.2789 23.7862 14.9104 19.1547 20.6242 19.1547H31.1944V39.8453H31.1925ZM20.6242 5.2418C16.7818 5.2418 13.6677 8.3559 13.6677 12.1983C13.6677 16.0406 16.7818 19.1547 20.6242 19.1547H27.8056V5.23996L20.6242 5.2418ZM31.1925 22.5436H20.6242C14.9104 22.5436 10.277 17.9121 10.277 12.1964C10.277 6.4808 14.9085 1.8493 20.6242 1.8493H31.1944V22.5417L31.1925 22.5436ZM31.1925 19.1547H38.3758C42.2108 19.1455 45.3138 16.0351 45.3138 12.1983C45.3138 8.36143 42.2089 5.25102 38.3739 5.2418H31.1925V19.1547ZM38.3758 22.5436L27.8056 22.5454V1.85115H38.3758C44.0896 1.85115 48.7229 6.48265 48.7229 12.1983C48.7229 17.9139 44.0914 22.5436 38.3758 22.5436Z" fill="#FE7F2D"/>
</svg>
