<svg width="58" height="58" viewBox="0 0 58 58" fill="none" xmlns="http://www.w3.org/2000/svg">
<g clip-path="url(#clip0_2041_32)">
<path d="M0 6.34375C0 2.84019 2.84019 0 6.34375 0H51.6562C55.1598 0 58 2.84019 58 6.34375V13.5938C58 15.0953 56.7827 16.3125 55.2812 16.3125C53.7798 16.3125 52.5625 15.0953 52.5625 13.5938V6.34375C52.5625 5.84325 52.1569 5.4375 51.6562 5.4375H6.34375C5.84325 5.4375 5.4375 5.84325 5.4375 6.34375V51.6562C5.4375 52.1569 5.84325 52.5625 6.34375 52.5625H55.2812C56.7827 52.5625 58 53.7798 58 55.2812C58 56.7827 56.7827 58 55.2812 58H6.34375C2.84019 58 0 55.1598 0 51.6562V6.34375ZM17.2188 23.5625C17.2188 22.061 18.436 20.8438 19.9375 20.8438H33.5312C35.0328 20.8438 36.25 22.061 36.25 23.5625C36.25 25.064 35.0328 26.2812 33.5312 26.2812H29.9062V45.3125C29.9062 46.814 28.689 48.0312 27.1875 48.0312C25.686 48.0312 24.4688 46.814 24.4688 45.3125V26.2812H19.9375C18.436 26.2812 17.2188 25.064 17.2188 23.5625ZM40.8744 23.8529C42.3922 22.0459 44.7713 20.8438 48.0312 20.8438C51.0578 20.8438 53.3411 21.8793 54.8803 23.5074C55.9116 24.5986 55.8631 26.3194 54.7719 27.3508C53.6808 28.3822 51.96 28.3338 50.9287 27.2426C50.5303 26.8213 49.7365 26.2812 48.0312 26.2812C46.2162 26.2812 45.4234 26.8916 45.0381 27.3502C44.5636 27.9149 44.4062 28.623 44.4062 29C44.4062 29.377 44.5636 30.0851 45.0381 30.6498C45.4234 31.1084 46.2162 31.7188 48.0312 31.7188C48.3057 31.7188 48.5706 31.7594 48.82 31.835C51.2238 32.1772 53.0406 33.2503 54.2818 34.7279C55.7105 36.4287 56.1875 38.4395 56.1875 39.875C56.1875 41.3105 55.7105 43.3213 54.2818 45.0221C52.7641 46.8292 50.385 48.0312 47.125 48.0312C44.0985 48.0312 41.8151 46.9956 40.2759 45.3676C39.2446 44.2765 39.2932 42.5557 40.3843 41.524C41.4754 40.4927 43.1962 40.5413 44.2275 41.6324C44.6259 42.0536 45.4198 42.5938 47.125 42.5938C48.94 42.5938 49.7328 41.9833 50.1182 41.5247C50.5927 40.96 50.75 40.252 50.75 39.875C50.75 39.498 50.5927 38.79 50.1182 38.2253C49.7328 37.7667 48.94 37.1562 47.125 37.1562C46.8506 37.1562 46.5856 37.1157 46.3362 37.0399C43.9325 36.6977 42.1156 35.6247 40.8744 34.1471C39.4458 32.4461 38.9688 30.4355 38.9688 29C38.9688 27.5645 39.4458 25.5539 40.8744 23.8529Z" fill="#FE7F2D"/>
</g>
<defs>
<clipPath id="clip0_2041_32">
<rect width="58" height="58" fill="white"/>
</clipPath>
</defs>
</svg>
