<svg width="26" height="38" viewBox="0 0 26 38" fill="none" xmlns="http://www.w3.org/2000/svg">
<path d="M12.0352 0H14.0947V0.0185547L15.0781 0.148438L15.7461 0.27832L16.4141 0.445312L17.0635 0.649414L17.5645 0.834961L18.0469 1.03906L18.5293 1.26172L18.9932 1.50293L19.4385 1.7627L19.7354 1.94824L20.1436 2.22656L20.4961 2.48633L20.7373 2.67188L21.0527 2.93164L21.3125 3.1543L21.6094 3.43262L22.2031 4.02637L22.333 4.1748L22.5 4.36035L22.667 4.56445L22.9082 4.86133L23.1494 5.19531L23.3721 5.51074L23.5762 5.82617L23.7988 6.19727L24.0215 6.58691L24.207 6.93945L24.4854 7.55176L24.708 8.1084L24.9307 8.75781L25.1348 9.51855L25.2646 10.1309L25.376 10.8359L25.4502 11.5596L25.4688 11.875V13.0996L25.4316 13.6377L25.3574 14.25L25.2461 14.918L25.0977 15.5859L24.9121 16.2354L24.708 16.8291L24.4854 17.3857L24.2441 17.9053L24.0957 18.2021L23.8545 18.6475L23.6133 19.0557L23.3906 19.3896L23.1865 19.6865L23.0381 19.8906L22.7969 20.2061L22.5928 20.4473L22.4258 20.6514L22.1475 20.9482L22.0176 21.0967L21.3311 21.7832L21.2012 21.9316L21.0342 22.1172L20.7002 22.5254L20.4775 22.8223L20.2549 23.1377L19.9766 23.583L19.7354 24.0098L19.5127 24.4365L19.29 24.9189L19.0303 25.5869L18.8447 26.1621L18.6963 26.7373L18.5664 27.3125L18.6035 27.2939H18.9561L19.1416 27.3311L19.29 27.4053L19.4385 27.5537L19.5127 27.7021L19.5312 27.7578V28.0547L19.4199 28.2773L19.29 28.4072L19.123 28.4814L19.0117 28.5H18.3994L18.3809 28.8896L18.3623 29.5947L18.3438 30.8564H18.9375L19.1416 30.8936L19.29 30.9678L19.4199 31.0977L19.5127 31.2646L19.5312 31.3203V31.6172L19.4199 31.8398L19.29 31.9697L19.123 32.0439L19.0117 32.0625H18.3623V32.8604L18.3438 34.085L18.2695 34.4004L18.1396 34.6973L18.0098 34.9014L17.7871 35.1611L17.5459 35.3467L17.249 35.4951L16.9707 35.5879L16.748 35.625L16.4512 35.6436L16.1172 36.9609L15.9688 37.5361L15.876 37.7402L15.7461 37.8887L15.542 38H10.4209L10.4023 37.9629L10.2539 37.8887L10.1055 37.7217L10.0127 37.4805L9.67871 36.1631L9.56738 35.7178V35.625H9.2334L8.93652 35.5693L8.6582 35.458L8.4541 35.3467L8.26855 35.1982L8.02734 34.957L7.86035 34.6973L7.73047 34.4189L7.65625 34.085L7.6377 33.8623V32.0625H6.95117L6.74707 31.9883L6.58008 31.8398L6.46875 31.6172V31.3203L6.54297 31.1348L6.6543 31.0049L6.80273 30.9121L6.89551 30.875L7.00684 30.8564H7.6377L7.61914 29.0566L7.60059 28.5H6.95117L6.74707 28.4258L6.58008 28.2773L6.46875 28.0547V27.7578L6.54297 27.5723L6.6543 27.4424L6.80273 27.3496L6.91406 27.3125L7.04395 27.2939H7.41504L7.32227 26.8301L7.17383 26.2734L7.00684 25.7354L6.72852 25.0117L6.4502 24.3994L6.20898 23.9355L5.91211 23.4346L5.70801 23.1191L5.50391 22.8223L5.33691 22.5996L5.15137 22.3584L4.74316 21.876L4.46484 21.5791L3.94531 21.0596L3.81543 20.9111L3.59277 20.6699L3.42578 20.4658L3.27734 20.2988L3.14746 20.1318L2.96191 19.8906L2.7207 19.5566L2.53516 19.2783L2.33105 18.9629L2.05273 18.4805L1.83008 18.0537L1.55176 17.4785L1.29199 16.8291L1.05078 16.124L0.84668 15.3633L0.716797 14.7324L0.624023 14.1572L0.549805 13.4521L0.512695 12.6729V12.2275L0.53125 11.7266L0.605469 10.9658L0.698242 10.3535L0.828125 9.72266L0.976562 9.14746L1.14355 8.60938L1.3291 8.08984L1.5332 7.60742L1.7373 7.16211L1.97852 6.67969L2.21973 6.25293L2.5166 5.77051L2.7207 5.47363L2.94336 5.1582L3.16602 4.86133L3.40723 4.56445L3.62988 4.30469L3.75977 4.15625L3.83398 4.06348H3.87109L3.9082 3.98926L4.24219 3.65527L4.33496 3.54395L4.4834 3.41406L4.65039 3.24707L4.79883 3.11719L5.05859 2.89453L5.2627 2.72754L5.52246 2.52344L5.875 2.26367L6.43164 1.89258L6.76562 1.68848L7.15527 1.46582L7.58203 1.24316L7.97168 1.05762L8.39844 0.87207L8.93652 0.667969L9.51172 0.482422L10.0684 0.333984L10.6436 0.204102L11.3115 0.0927734L11.9424 0.0185547L12.0352 0ZM12.9443 1.1875L12.3135 1.20605L11.6641 1.26172L11.0518 1.35449L10.4209 1.48438L9.75293 1.66992L9.15918 1.87402L8.6582 2.07812L8.21289 2.28223L7.69336 2.54199L7.24805 2.80176L6.89551 3.02441L6.6543 3.19141L6.32031 3.43262L6.0791 3.61816L5.59668 4.02637L5.37402 4.23047L5.13281 4.45312L4.87305 4.71289V4.75H4.83594L4.70605 4.89844L4.53906 5.08398L4.31641 5.34375L4.1123 5.60352L3.92676 5.84473L3.74121 6.10449L3.55566 6.38281L3.33301 6.73535L3.0918 7.16211L2.86914 7.58887L2.68359 7.97852L2.53516 8.33105L2.38672 8.70215L2.16406 9.38867L2.01562 9.94531L1.86719 10.6689L1.77441 11.374L1.7373 11.8564L1.71875 12.2646V12.6729L1.75586 13.3594L1.81152 13.916L1.9043 14.5283L2.05273 15.2148L2.23828 15.8643L2.40527 16.3652L2.62793 16.9219L2.85059 17.4043L3.03613 17.7568L3.14746 17.9609L3.33301 18.2949L3.64844 18.7773L3.83398 19.0371L4.05664 19.334L4.29785 19.6309L4.46484 19.835L4.6875 20.0762L4.85449 20.2617L5.41113 20.8184L5.54102 20.9668L5.78223 21.2266L5.94922 21.4307L6.19043 21.7275L6.35742 21.9502L6.59863 22.2842L6.91406 22.7666L7.08105 23.0449L7.30371 23.4346L7.58203 23.9727L7.86035 24.585L8.12012 25.2715L8.30566 25.8467L8.4541 26.3848L8.60254 27.0713L8.63965 27.2754L8.6582 27.2939H10.0127V21.6162L9.88281 21.4678L7.78613 19.3711L7.71191 19.2412L7.6748 19.1484L7.65625 19.0186L7.6377 15.9199L7.28516 15.7344L7.11816 15.6045L6.93262 15.4375L6.74707 15.1963L6.59863 14.918L6.50586 14.6025L6.46875 14.3613V14.1572L6.52441 13.8047L6.61719 13.5264L6.74707 13.2852L6.93262 13.0439L7.09961 12.877L7.28516 12.7471L7.56348 12.5986L7.86035 12.5059L8.15723 12.4688H8.34277L8.63965 12.5059L8.97363 12.6172L9.27051 12.7842L9.51172 12.9883L9.69727 13.2109L9.86426 13.4893L9.97559 13.8047L10.0127 14.0088V14.4912L9.93848 14.8066L9.82715 15.0664L9.69727 15.2705L9.54883 15.4561L9.41895 15.5859L9.17773 15.7529L8.8623 15.9199L8.84375 16.4023V18.7217L8.89941 18.8145L8.95508 18.8701H8.99219V18.9072H9.0293V18.9443H9.06641V18.9814H9.10352V19.0186H9.14062V19.0557H9.17773V19.0928H9.21484V19.1299H9.25195V19.167H9.28906V19.2041H9.32617V19.2412H9.36328V19.2783H9.40039V19.3154H9.4375V19.3525H9.47461V19.3896H9.51172V19.4268H9.54883V19.4639H9.58594V19.501H9.62305V19.5381H9.66016V19.5752H9.69727V19.6123H9.73438V19.6494H9.77148V19.6865H9.80859V19.7236H9.8457V19.7607H9.88281V19.7979H9.91992V19.835H9.95703V19.8721H9.99414V19.9092H10.0312V19.9463H10.0684V19.9834H10.1055V20.0205H10.1426V20.0576H10.1797V20.0947H10.2168V20.1318H10.2539V20.1689H10.291V20.2061H10.3281V20.2432H10.3652V20.2803H10.4023V20.3174H10.4395V20.3545H10.4766V20.3916H10.5137V20.4287H10.5508V20.4658H10.5879V20.5029H10.625V20.54H10.6621V20.5771L10.8105 20.707L10.9775 20.874L11.126 21.0596L11.2002 21.2266L11.2188 27.2939L12.332 27.3125L12.3877 27.2939V11.1699L12.0352 10.9844L11.8682 10.8545L11.6826 10.6875L11.4971 10.4463L11.3486 10.168L11.2559 9.85254L11.2188 9.61133V9.40723L11.2744 9.05469L11.3672 8.77637L11.4971 8.53516L11.6826 8.29395L11.8496 8.12695L12.0908 7.95996L12.3691 7.83008L12.6104 7.75586L12.9072 7.71875H13.0928L13.3896 7.75586L13.7236 7.86719L13.9277 7.97852L14.1318 8.12695L14.3174 8.29395L14.4844 8.5166L14.6143 8.73926L14.7256 9.05469L14.7627 9.25879V9.74121L14.6885 10.0566L14.5771 10.3164L14.4473 10.5205L14.2988 10.7061L14.1689 10.8359L13.9277 11.0029L13.6123 11.1699L13.5938 12.3203V27.2939L14.707 27.3125L14.7627 27.2939L14.7812 21.3193L14.8184 21.1709L14.8926 21.0225L15.0967 20.7998L17.1377 18.7588V15.9199L16.7852 15.7344L16.6182 15.6045L16.4326 15.4375L16.2471 15.1963L16.0986 14.8994L16.0059 14.6025L15.9688 14.3428V14.1758L16.0059 13.8789L16.0986 13.582L16.2471 13.2852L16.4326 13.0439L16.5996 12.877L16.7852 12.7471L17.0635 12.5986L17.3604 12.5059L17.6572 12.4688H17.8428L18.1396 12.5059L18.4736 12.6172L18.7705 12.7842L19.0117 12.9883L19.1973 13.2109L19.3643 13.4893L19.4756 13.8047L19.5127 14.0088V14.4912L19.4385 14.8066L19.3271 15.0664L19.1973 15.2705L19.0488 15.4561L18.9189 15.5859L18.6777 15.7529L18.3623 15.9199L18.3438 16.4951L18.3252 19.1299L18.251 19.3154L18.084 19.501L15.9873 21.5977L15.9688 22.0059V27.2939H17.3418L17.5088 26.4961L17.6943 25.791L17.917 25.123L18.1211 24.585L18.3623 24.0469L18.6592 23.4531L18.9189 23.0078L19.1416 22.6367L19.4199 22.2285L19.6797 21.876L19.8838 21.6162L20.292 21.1338L20.5703 20.8369L21.2012 20.2061V20.1689H21.2383L21.3682 20.0205L21.4053 19.9463H21.4424L21.5352 19.835V19.7979H21.5723L21.7207 19.6123L21.9619 19.3154L22.2031 18.9814L22.3887 18.7217L22.5557 18.4619L22.7969 18.0537L22.9824 17.7197L23.1494 17.4043L23.3906 16.8662L23.5947 16.3467L23.7988 15.7344L23.9844 15.0293L24.1143 14.3984L24.207 13.7119L24.2627 12.9883V11.9307L24.207 11.2256L24.1328 10.6689L24.0215 10.0566L23.8545 9.38867L23.6875 8.85059L23.5576 8.47949L23.3535 7.97852L23.1309 7.49609L22.8525 6.95801L22.5371 6.43848L22.2031 5.9375L21.9805 5.64062L21.7764 5.38086L21.5723 5.13965L21.2383 4.76855L20.9414 4.45312H20.9043L20.8672 4.37891L20.7188 4.24902L20.5703 4.10059L20.4219 3.9707L20.1807 3.7666L19.9209 3.5625L19.6797 3.37695L19.3457 3.13574L19.0303 2.93164L18.5664 2.65332L18.1211 2.41211L17.7129 2.20801L17.0449 1.92969L16.5254 1.74414L15.9688 1.57715L15.5234 1.46582L15.0596 1.37305L14.4658 1.28027L13.9092 1.22461L13.6123 1.20605L12.9443 1.1875ZM12.9629 8.90625L12.7959 8.94336L12.6846 8.99902L12.5176 9.14746L12.4434 9.2959L12.4248 9.38867V9.61133L12.4805 9.77832L12.5918 9.92676L12.7588 10.0381L12.8701 10.0752H13.1113L13.2969 10.001L13.4453 9.87109L13.5195 9.77832L13.5752 9.62988V9.37012L13.4824 9.14746L13.3525 9.01758L13.1484 8.9248L12.9629 8.90625ZM8.21289 13.6562L8.0459 13.6934L7.93457 13.749L7.76758 13.8975L7.69336 14.0459L7.6748 14.1387V14.3613L7.73047 14.5283L7.8418 14.6768L8.00879 14.7881L8.12012 14.8252H8.36133L8.54688 14.751L8.69531 14.6211L8.76953 14.5283L8.8252 14.3799V14.1201L8.73242 13.8975L8.60254 13.7676L8.39844 13.6748L8.21289 13.6562ZM17.7129 13.6562L17.5459 13.6934L17.4346 13.749L17.2676 13.8975L17.1934 14.0459L17.1748 14.1387V14.3613L17.2305 14.5283L17.3418 14.6768L17.5088 14.7881L17.6201 14.8252H17.8613L18.0469 14.751L18.1953 14.6211L18.2695 14.5283L18.3252 14.3799V14.1201L18.2324 13.8975L18.1025 13.7676L17.8984 13.6748L17.7129 13.6562ZM8.8252 28.5L8.84375 30.8564L17.082 30.875L17.1377 30.8564L17.1562 29.2607L17.1748 28.5H8.8252ZM8.8623 32.0625L8.84375 32.2666V33.8438L8.88086 34.0479L8.99219 34.2334L9.15918 34.3633L9.32617 34.4189H16.6553L16.8223 34.3633L16.9893 34.252L17.082 34.1221L17.1377 33.9365V32.0625H8.8623ZM10.8105 35.625L10.8291 35.7734L11.0703 36.7383L11.0889 36.7939H14.9111L15.1895 35.6992V35.625H10.8105Z" fill="#FE7F2D"/>
</svg>
